<mxfile host="app.diagrams.net" agent="Mozilla/5.0 (Windows NT 10.0; Win64; x64) AppleWebKit/537.36 (KHTML, like Gecko) Chrome/129.0.0.0 Safari/537.36 Edg/129.0.0.0" version="24.7.17">
  <diagram name="Page-1" id="2YBvvXClWsGukQMizWep">
    <mxGraphModel dx="1224" dy="1141" grid="1" gridSize="10" guides="1" tooltips="1" connect="1" arrows="1" fold="1" page="1" pageScale="1" pageWidth="850" pageHeight="1100" math="0" shadow="0">
      <root>
        <mxCell id="0" />
        <mxCell id="1" parent="0" />
        <mxCell id="OhJF637DeTEr0FJWsne7-2" value="" style="shape=image;verticalLabelPosition=bottom;labelBackgroundColor=default;verticalAlign=top;aspect=fixed;imageAspect=0;image=data:image/png,iVBORw0KGgoAAAANSUhEUgAABFkAAAJFCAIAAACJO7+zAAAgAElEQVR4Aey9C1xU1732v+WmXIwgIjAgoihCSBhktJggSUOOjvEe7zEmxeMxkvKeavXEVI2XViWJpqZS+8Zo1KRSK42JMW2OUQkXLaD1KF7K/SIMCkiCQyAcBYZZr/+sf1Z3htmbAWaGvWcePvmQNXuvy29913r2nse194LTm+mH4AcEQAAEQAAEQAAEQAAEQMCmCZjJOkilGs5cgdj0oKNzIAACIAACIAACIAACIAACxFzeQSL1wAthToMACIAACIAACIAACIAACJhEQCIexlxhwAuZNOrIBAIgAAIgAAIgAAIgAAIgYC4TIpF64IUwpUEABEAABEAABEAABEAABEwiIBEPY64wJOGF7t3T7tjx9tatOzdv3tEv/23dmrxz5y6ttsmkKYBMINArAllZ57du3bllS/9M8n5RlgQb3bp1R2Zmdq8GEIVkT+Dbb799663dW7cmS3BmIiRGYMuWHVu37nx4wZT9hLP1DlBBbdsGQdnybX3r1p07drx9756WP53NZUIkUo8kvNDOnbsKCjQaTVM//ldQoElO3s0faaRBwIwETp48mZp6oh9nOJpmBP74x7+kpaWZcXBRlVwI7N79236/17B5iIQ4gdTUE9CpxJX1zjt7ICjxaWwbZ7//hryLPxsl4mHMFYYkvNCWLTukMF22bt3JH2mkQcCMBN555x0pTHLEQAns3JlsxsFFVXIhsGPHW5CAjAi8+eabcpla9hnnzp0QVH/+I741tbxly4++IZvLhEikHkl4oc2b4YXs80JqR73evRteSEL3jLff/tE/cdnRRLTvrm7f/qY1vz2grT4S2L37HfuesFLvPf5xoY8zXEbFHz65yp+OEvEw5goDXuhf38+wLsSf6EiblwC8kKQu+vBC5p3ecqkNXkhSMuw2GHghiSsLXqjbOWwzGeCFTPJdfVEs1oX6Qg9lZUEAXkhStwR4IVmoxuxBwgtJSobdBgMvZHYJmLdCeKFu57DNZIAXghcy79UDtdkjAXghSd0S4IXsUYSEwAtJSobdBgMvJHGdwgt1O4dtJgO8ELyQxC9HCE8GBOCFJHVLgBeSgWYsECK8kKRk2G0w8EIWEIE5q4QX6nYO20wGeCF4IXNeO1CXfRKAF5LULQFeyD5lCC8kKRl2Gwy8kMR1Ci/U7Ry2mQzwQv3mhTIz/5GXd5M/k27cuPW3v2VWV2v5B82Vxt4JEr/syjo8ES+Um3vjb3/L/NvfMr/88u/XrlWYaz5boZ6tW9989939fWmI3/ebN6v6UlWPysILyVpNvQ5eyAvx56G8NKjRNPVdhmVl9cePf/67373/4YdpeXn/7JGULJoZXqjXU906BYW8kD0Lit/3vLx/Wuj76q9+tfUPfzhsUfUZVA4v1G9eaPz4CUuWvMQfj9/97n2O48rK6vkHzZWGF7LO1dM+WxHxQgsWvODk5OTlNXTw4Ec4jpswYZLBPwGYa4b3vZ6XX/6PDRu2sXpmz56/cmUS+9iLBOu7h8dgjuMmT/7plSslvainp0XghexThkJeiM1D2WlQo2nqowxPnjzr6+vn7e0zYcKk4ODRDg4OfI33VFnmzQ8vJHGdCnkhexYU6/uQIZ4ODg6DBz+ydOnP8vPLTJGGwR1WpEhs7NOvvrpGJIPZT8ELwQtJ/HKE8GRAQNwLTZoUS69c589fDQwMio9Xm/1CZpYKHwb27/+eaJaqaCULFrzA+v7VVxeHD/ebMWOuGesXqgpeSAaasUCIIl6IzUN70+Do0WNmzJhbWfk1FcvFiwWnT18QEo6Vj8MLWUAE5qxSxAvZraD4N7Xy8rupqZ+GhoYFBgZdv17ZrXxMv8PCC5nkTEzOJOm/LyS+LnTuXN7cuQsjIiKjoycuWvQi/5+TP/wwLT5eHRHx+IwZc//7v7Pp/HvttTdSUg7u2PGOShWzePGyrpMS60LmvEairh8TMNELaTRNr766euhQb/78NDqf+zj/jxw5vnz5Kn4ru3b9fu3aDRpN0yeffLlgwQtRUSqVKuaVV/7PP/9ZTbPt3PlbX1+/0aPHzJo1b9aseZcvF7/xxo533vkDq+Sdd/7wxBOTH330sXnzlpw/f5Udf+21N37/+w/eeut3KtVPYmKe5Bfh3zY0mqZVq/7Tx8dXJAaNpqmq6t6GDdsiI8dPnDjp3Xf3b9+++623fsfaMsqKnWUJeKEfT097+WSKFzJdgxpNk5AMheYh/zYUF/eMkAaFJNBVgxpNkykyFNJgWVk9x3F79x5g0jBI9L0jGk2T0Ur4KIzekTWaJnghiSvTFC9kV4LSaJoMbmoaTdOVKyVubm4///kvqbhMv8MK5Xx45fneC63etu2t8eMnqFQx7K4qUqSnFyuDSwHWhUwyVn1RrNDfFxLxQuXld729fV56acXx43/98MO/rF69Pjv7Ch25d975g7u7+4YN2/7851O//OWvBg0adOZMDp06fn7+U6dO/7//98iHH/7FYJi/f+p6Z196gbIgIELAdC80ffqckJCxbH4anc99n/9ZWf/DcdzZs7m0oaqqe/7+iq1b39RomrZsSX7jjR1/+tPJDz44NmHCpJ/85Ama529/y3z88aj4ePX+/R/t3/9RYeHtqVOn/+xnK+nZX//6rUGDBm3d+uYf/3hiypTnhg71vnHjFj0VG/u0QhEwe/b8Q4f+/PrrWxwcHP7851P0lMFtY9GiF4ODR4vEoNE0/fKXv3rkkSFvvfW7jz76+Kc//TcfH1/2JK1RVrQhg9/wQiJz1YZPmeiFTNGgRtMkJEOReRgb+zS7Db311l4hDQpJoKsGNZomU2QoosERI0ZGRalOnUq/davRQCZm6YhQJXwURu/I8ELSV6KJXsiuBGVwU6OamjVrXkTE4zRt+h1WKCf9Quvj4zt9+pw//vHEhg3bnJycU1IOCl03enexMrgawAtJ0QudP3+V47h//KPIYLQqK7/x9h7261+/zY4vXLh0zpwFdOqMHRsm8h4b1oWkf+WVb4TiXigoKHjTpu2/+tXWGTPmOju7vPfeh3QCC81ns8x/leon7G2f1NRPnZyc8/PLmXBo4tq1Co7jMjP/QT8arOCzL2GVld8MGeK5adN2FnZAwIjVq9fTj7GxTz/+eBST3tNPP8sc1IIFL0REPP7JJ1+mpf1t/frNTk5Oa9a8Tkux3/wYysvvenh4vPXWXnq2tLR+6FBv6oWEWLF6+Al4IflKqS+Ri3ihnmpQo2kyKkPxeRgb+zT/NmSKBjWaJr4EDDTI90IiMhTR4GefnRs5chTHcW5ubk8//Sz9RqXRNJmlIyKVGKDgy5OlsS7Ul9luhbIiXshuBWXUCyUlrfXyGsomNkvwpf3wktJV3UI5Y2OfDgoKrqq6RzMkJv4iJCSUZaYJfuW9uFgZ1AYvJEUvVFn5zbhx4YGBQYmJvzh27DP2rPO5c3kcxy1b9u+//OWv1qx5ffXq9U89FR8eHkG90EsvrTAYXf5HeCErXDrttglxL+TlNXTq1OlPP/2sh4fHlCnPdTufzTL/33zz3WHDhldWfvPwy9bcuQunTp1O5ZCfX56UtPbJJ+PCwh4NDQ0bMGDARx99TE8ZXKmZF6LX2XPn8pigFi9e9uyz0+jH2Nin+W8ZvfTSiueem0VPLVjwgrOzi5+ff2Bg0MSJk37967doPEIxZGb+g+M4tgis0TQ988wU6oVEtM+iYgl4IftUoogX6qkGqVvoehsSn4exsU/zb0NCGtRomoQkYKBBvhcSkaGIBjWapupq7V//mrF165uxsU9zHLdq1X8+vGOapSMilRigYNrkJ+CFJK5TES9kt4Iy6oUSE38xbNhwOreFpN3VC4nkjI19+oUXXmZi+dOfTg4YMKC0tF6oiNHvDCLyZDWzBLxQv3mhh5tKzZo1j42ERtO0Y8c7zs4u1AoXFd1588131eoZHh6Dg4KC//73axpN0+eff8VxXGLiL371q63sv507f0u9kPi2G/BCEr/syjo8cS/EXjPNy/vn0KHe//mf/0Wnvch87vv8LyjQDBw46MMP0woLawYNGnTw4J9oo0pldHz81NTUT8+ezc3IuOTk5MxOGXwPY17oyy//znEc1SCtJCHhlSefjKNpg7c8f/azlcx3Gb1taDRNQjGcPZvLcVxu7g1as0bTNGXKc9QLibBimVkCXkjWaup18CJeqBca1GiauspQfB4aaEFIgyISMNAg3wuJyNCgXb4GmShoYvnyRCcn58rKb8zSEZFKDEIyCIN+hBfq9VS3TkERL2S3gjJ6U3v66WdVqhg6q4Xubl29kEjO2Ninly//1z5GJ0+e4Tju+vVKkSI9vVgZSBJeqN+80IsvLg8NDeOPx89+trLrOmBR0Z2QkNDExF9oNE03btxycHDYv/+P/FI03e2VF17IOldP+2zFRC9EDf/AgYMuXy4Wn89shvdl/s+ePX/69Dlvv53i7T2MLkZduVLCcVxW1v/Q+ulrRcwLTZ06nf+2N/NChYW3BwwY8MEHx1hUMTFPsn+1MpAe/3uY0duGSAzFxbVOTk77939EG7p1qzEgIJB6IRHts6hYAl7IPmVoihfqhQapKaK3IfF5aKAFuiO2gQbpy9ZCMjTQIN8LicjQoF2+BpkoaOLtt1MGDBhQVHTHLB0RqcQgJIMw6Ed4IYnr1BQvZG+C6npT++KLLEdHR/o6rsjdjWqZ3WHFc8bGPv1wsZep5q23fjd48CPiRVhm9p1BRJ4sM0vAC/WbF/rb3zIHDBiwYcOvy8vvVlXdO3r0E3d39y1bkjWapry8m0ePfkIXiG7cuDVy5Cj2JxHmzVsSFBRM90vQaJoyMi4dO/YZ1oUkfkm1+fBM90IVFQ0KRQC7IBqdz+aa/3/84wkXl4EP3+lkz7CVlNQ5OTknJ+/RaJoKC2ueeip+wIABzAstX56oUsVcvVpaVHSnulrLvNDDR3rmzFnw6KOP0e0c9+49MGDAgM8//4peRg2+9PC/h3W9bWg0TeIxLF2aMHLkqJMnz168WLB8eaKbmxv1Qg+to1FW7FLOT8AL2bzijHbQRC9kigZFbkMi89BACxpNU1cNikvAQIN8LyQiQ4N2mQYrKhqef37RyZNn6V/t++qri6GhYdHRE6lY+t4REVUahMSXJ0vDCxmdxtI5aKIXsh9B0X3koqJU589fzcr6n08//XLduo0eHoOfeGJyefldcWk/fFqVr+7v/+FP8F4cG/u0o6MjvTVfvFgwcuSolSuTRG6dQt8ZRDTOZEgT8EL95oU0mqbk5D3071W5uAx0cnJ+6aUV9F+vz57NHTZsuLOzi0IR4OIyUK2eUVJSRwesuLh20aIXnZycPD293NzcPD293nzzXXgh6Vw97TMS070QnfYuLgPp1iBG57O55v+tW42+vn4cx/H/oshvfrPL2dnFx8fX3d198+adbm5uzAv9/e/XJkyY5OrqSjdU4Huh/PyySZNiHRwcHnlkiKurK/03MCpJgy897HuY0e1HaRGRGIqK7syfv8Td3d3T0+vVV1er1TNeeeX/iGufnuX/hheyTxma6IVM0aBG0yQkQ6OapdPPQAsaTZNRDWo0TUISMNCggRcSkqFBu0yDlZXfxMdPHTRokIODA9V1XNwz7BlUs3REqBKDkPjyZGl4IYnr1EQvZD+Cojc17vsfR0fHoUO9n3wyLjl5D30Plk5sIWlrNE0G6hbJGRv79JIlLz32mHLoUG8HB4cnn4wrLKwRuW704mLFZEgT8EL96YXo+6mZmf84eza3uLjWYGwuXSo8ezaXbd3LP1tYePvs2dy8vJtd9wnlZ+On8YycxC+7sg5PxAvxJ6FQ2uh8Nu/85zddUKA5dy6PXlv5x7tN05DYP0x0m18kgykx3LrVOGLESLqKxaoyyoqdpQl4IVmrqdfBC3khg+lh9KPQvBKSoVB+o5UbPWiKBIwW7KkMKyoa/v73a199ddGo5Pveke8XmXt8R8ae2r2e51YrKOSFjE5Lg4NC88oGBGXQ064fTZd2tzmzs6/w39TVaJpEivSFLbxQP3uhrtPIQkfghax2AbXDhvrohSw05+VY7enT53ft+v25c3mnTqU///yioUO9Cwo0Pe0IvJAdapAQ0hcv1NM5hvx9J4B1IYnrtC9eqO/TAzVYkwC8ELyQxC9HCE8GBOCFzHXV/uqri089FR8UFBwSMnbWrHnnz1/tRc3wQjLQjAVChBfqhVj6sQi8kAVEYM4q4YX6UR1WbhpeCF7InNcO1GWfBOCFrHzhFm8OXsg+ZQgvJK4LqZ2FF5K4TuGFpCYZy8UDLwQvJPHLEcKTAQF4Ictdo3tRM7yQDDRjgRDhhXohln4sAi9kARGYs0p4oX5Uh5WbhheCFzLntQN12ScBeCErX7jFm4MXsk8ZwguJ60JqZ+GFJK5TeCGpScZy8cALwQtJ/HKE8GRAAF7IctfoXtQMLyQDzVggRHihXoilH4vAC1lABOasEl6oH9Vh5abhheCFzHntQF32SWD37t1WvnKhOREC8EL2KcMdO94UmRU4JTUCu3fvts+JKpdewwtJTTKWiwdeyOJeaMuWHdXVWssNoSk1V1drsae2XK6/cozzwIED166VmjIVkcfSBK5cKXn//fflOIsQcx8J7NjxZr/fayw9vW2m/mvXSg8cONDHEUdxixLYufMtCMpmFCfSkepqLbyQxb3QV19lffjhX0SGwQqnPvroL5mZ2Ra9aqByeybQ1ta2fv2vrlyBHWqygpxFmvif/yl57bXX29ra7Hk22m3fz58/n5r6scj0wCmJELhypXT9+l9BpxKX6oULF/70pxMSmTMIw3IEPvroL199lcWfjSYZA/lk4swVKp9RL9InTpx4661d/fXf9u07jh8/3ouwUQQETCfQ3t6+f//+/prkaJcSeO+9/e3t7aaPGnLaGIFPPvnk7bf77V4DGZpIYP9+6FQeyoOgTJzS8s1m9BuyubyDROqRihfqo+hzcnL6WAOKgwAIdEsAQusWETKAgJUJQJVWBo7m7JwAFEcIkYiHMVcYNuKF3nnnHTsXJ7oPAlYgAKFZATKaAIEeEYAqe4QLmUGgjwSgOHghQQ/Wx7nVx+KYmn0EiOIgYAoBCM0USsgDAtYkAFVakzbaAgEoDl4IXgjXARCwXwK4B9jv2KPnUiUAVUp1ZBCXbRKA4uCF4IVsU9voFQiYQgD3AFMoIQ8IWJMAVGlN2mgLBKA4eCGJeiG8yobLEwhYgQCEZgXIaAIEekQAquwRLmQGgT4SgOLghSTqhfo4s1EcBEAABEAABEAABEAABECgWwKCZkCeJ2xkH7luhw0ZQAAEQAAEQAAEQAAEQAAE+khAnpZHMGp4oT7OBxQHARAAARAAARAAARAAAXshIOgq5HkCXsheJi76CQIgAAIgAAIgAAIgAAJ9JCBPyyMYtY14IbzK1sdpjeIgYAoBCM0USsgDAtYkAFVakzbaAgEoDnsnCJqq/pUHtjjsX/5o3U4IQGh2MtDopowIQJUyGiyEagMEoDh4IXghGxAyugACvSSAe0AvwaEYCFiMAFRpMbSoGASMEIDi4IXghYwIA4dAwE4I4B5gJwONbsqIAFQpo8FCqDZAAIqDF4IXsgEhowsg0EsCuAf0EhyKgYDFCECVFkOLikHACAEoDl5Iol4Ir7IZ0SsOgYC5CUBo5iaK+kCgrwSgyr4SRHkQ6AkBKA5eSKJeqCfT+P/LO3fu3OPHj9NS/HTXep577rmTJ092PX7s2LHt3//s2bPniy++6Ozs7JrHmkdqa2tbWlpYi1ILjwVGEwbRig+BQVl8BAEQAAEQAAEQAAEQ6C8CgmZAnidsZE/tns6GmJiYgwcP0lLJyckXLlwQqkGpVB49erTrWbVarVQqk5KSEhISfHx84uLiOjo6umaz2hGVSnXkyBHWnNTCY4HRhEG04kNgUBYfQQAEQAAEQAAEQAAE+ouAPC2PYNR24YU6OztLS0uzsrJqamrovOF7oYaGhtbWVnq8a06+F2pra6upqXnw4AEhRK1Wr169mpYqKSnhOC49PZ1NSp1Od+XKlby8PP5aDSFEq9VmZmZWVlZ2dnbW1NTQ1aS6ujpaJyFEp9PV1NTo9fpuqyotLc3IyLh69Wp7e3tjY2NkZOSePXtqamoaGhp6HR6/TvEA7t6929raSrvT0NCg1WobGxtZEULInTt37t+/TwipqqrKysoqKChgS2ddo+UPASGkra0tPz//2rVr7e3trE7aYlNTU3Z2dnV1NTuOBAiAAAiAAAiAAAiAgNUICLoKeZ6wfS9UUlISFRU1cuTIZ555xs/P77PPPiOE8L0QSxvNybzQN9988+STTy5fvpyu//C9UEdHh6Oj47Fjx+gsLC4uHjt2bFhY2OTJk318fE6fPk2PZ2VlDRkyRKVSjRs3btWqVRzHff3114SQgICAc+fO0Tw1NTUcx2m1WpGqOjs758+fr1AopkyZEhUVNXXq1I0bN7q5uQUHB6tUqoSEBAMvZEp4XesUCYAQolQqExISFApFdHT0p59+eujQodDQUFqEEFJQUODo6FhXV5eQkDBq1Kj4+Pjg4OAJEyZQv9Q1WjYEhJDLly8HBQUplcqIiIiQkJAbN27QapVK5cqVK0NCQmJiYgYNGrRv3z7WHBIgAAIgAAIgAAIgAALWISBPyyMYtY14IaFX2fR6/cSJE1esWEEXJXQ6XVNTk1EvJJSTeqGKiorQ0NDNmzezSaZWqxMTE7Va7e3bt19//XV3d/fbt2/T98kmTZrEcp46dcrX17e1tbWzszMsLGz79u00z5IlS7r1Qnq93mhV169fd3d3Z2tZ3377LSHE4KmznoZntE6hAKgXCgsLY2tBzc3Nbm5ueXl5lM/69eunT59OCGELcZ2dnfPmzduwYQPNYBAt80I6nS48PHz9+vU0W2JiYnR0NF0lUyqVUVFRzc3NhJATJ04MHjyYLTSxQUHC0gSEhGbpdlE/CICAEAGoUogMjoOAJQhAcdg7QdBUWWLCmV6n0BaH5eXlHMfV1tYaVMW+fDNfJJRTqVT+4he/UCgU7P0iWpVareZ++HFxcWEPyFVWVnIcl52dnf/Dz5AhQy5evFhUVMRxHHtkLi8vr1svJFRVTU2Ni4tLcnJyaWkp65eBu+hpeEbrFAqAeqFdu3ax1gkhy5YtS0xMpI/5KRSKjz/+mKolPT19796927dvnz17tlqtpkUMomXDUVxczHEcfcyPEFJRUcFxnEajoS3u3buXFtdqtRzHUfPJjwFpSxMQEpql20X9IAACQgSgSiEyOA4CliAAxcELycwLZWdnOzk5dRUD+/LNvJBQTqVSOWLEiPDw8Hv37vHrYc/INTQ0LFiwQKVS0WfnsrOzHRwc1D/+yc3NzcrK8vDwYDVUVVV164WEqiKEnDlzZtq0aW5ubqNHj05LSzO6LkRfZzIxPKN1igTAHh1kPUpPT/f09Hzw4MHp06eHDh3a1tZGCJk1a9b48eO3bduWkpKydOnSmJgYml/IC2VlZfHH6/79+xzHXbp0iXohtokFPV5WVsZaR8I6BHAPsA5ntAICphOAKk1nhZwg0HcCUBy8kMy8ELUcVVVVBrO/qxcSyqlUKj/66KOEhISoqCj6eg+tinkhQkhTU5O3t/f7779PtwowumRRVlbGcRx7qCw7O5t5odDQ0M8//5xWe+XKFfa+EA1JZPWjra0tJSXF2dm5ubl54sSJhw8fZt3saXisIL9OkQC6eiG9Xh8UFJSWlrZkyZKkpCS6quPg4ECfaiOEbN68mXkhg2jZcNDVuTt37tB46GIa/chvEV6IjZeVE7gHWBk4mgOBbglAld0iQgYQMCMBKA5eSGZeiBDy05/+dN68ef/7v/9LCGlubqbPy7Ev32xdSCgn/Qqu1+tfffXViIiIuro6qii+2SCEJCcnBwUF0cWQ+Pj4hQsXfvfdd3S6ZGRk6HQ6Qkh0dPSaNWvoPmnPPfcc80LPP//88uXL6fFFixYxL0QIMVpVVVVVSUkJDSMnJ8fR0bGlpWXOnDlr165lr9D0NDyjdQoFYLBKwy4xmzZtiouLc3V1vXz5MiGkurqa47ibN28SQsrKynx9fZkXMoiWDYder1epVKtWrdLr9TqdbvHixXFxcbR+eCHGuR8TuAf0I3w0DQJGCUCVRrHgIAhYiAAUBy8kUS8k8iqbRqN55plnPDw8QkNDvby8zp49y/c//LTRnPyv4OvWrRs7dizdD8DAbLS0tAwbNmz//v2EkNra2pkzZ3p4eIwbN87T0zMqKoruDX316tWAgIDAwEB/f/8tW7YwL3T9+nV/f3+FQuHn57dz506+FzJaVU5OjpeXV2BgYEREhJeX13vvvUcIycnJCQsLc3FxiY2NNdhHjhDSbXhG6xTpCx8Lu9zQta+IiAh2ZN26da6uruHh4WPGjFmzZg3zQgbRMi9ECCksLIyMjBw+fLi3t7dKpSovL6e18VvEuhAjbOWEiNCsHAmaAwEQoASgSswEELAmASgOXkiiXqhbGWi12uLiYrb3mkh+03OKVELtR1FRkcFbRu3t7YWFhU1NTXV1dcwLEUI6OjpKS0vZ42QGNbe0tBhUpdPpbt26VVJSQv+Gj0F+Uz72qM6umU1pguZpaGgoKSmhK2Oml6qtrWVLcKaXQs5eE6ivr09NTWWbufe6HhQEARAAARAAARCwbQKCZkCeJ2xkT23ZzTkDLyS7+BGw7RHIzc0NDQ1dtWoV3azC9jqIHoEACIAACIAACPSdgDwtj2DU8EJ9nxK9qUGr1c6YMYP+aaDelEcZELAAgXPnzgUEBPj7+//kJz85cOAAlokswBhVggAIgAAIgIC8CQi6CnmegBeS93RE9CBgXgLnzp0LDAz08/MLCwsLDg7GMpF58aI2EAABEAABEJA7AXlaHsGobcQL4VU2uesK8UuHALNDfn5+I0eOHDduHFsmgtCkM0yIBAQoAagSMwEErEkAisPeCYKmykF2CsgAACAASURBVJoTsWtbfvgBARCwGAG6yWFoaCj9y1FdBYgjIAAC/UUAO/z2F3m0a58EoDh4IYl6IUxN+7wkodeWIHDq1KmAgABqrCIiIh5//PHY2Fj6+hCEZgngqBME+kIAquwLPZQFgZ4SgOLgheCFeqoa5AcBORGgRiggIGDChAmjR49OSkribyuHe4CcxhKx2gcBqNI+xhm9lAoBKA5eCF5IKmpEHCBgdgLUCCkUCrYQZNAE7gEGQPARBPqdAFTZ70OAAOyKABQHLyRRL4RX2ezqSoTOWoJAbm7uuHHjDBaCDBqC0AyA4CMI9DsBqLLfhwAB2BUBKA5eSKJeyK50iM6CgNkJ1NfXp6am4g8KmR0sKgQBEAABEAABGyMgaAbkecJG9tS2sUmG7oAACIAACIAACIAACICABAnI0/IIRg0vJME5hpBAAARAAARAAARAAARAQIoEBF2FPE/AC0lxkiEmEAABEAABEAABEAABEJAgAXlaHsGobcQL4VU2CUoFIdkeAQjN9sYUPZI7AahS7iOI+OVFAIrD3gmCpqp/pzK2OOxf/mjdTghAaHYy0OimjAhAlTIaLIRqAwSgOHgheCEbEDK6AAK9JIB7QC/BoRgIWIwAVGkxtKgYBIwQgOLgheCFjAgDh0DATgjgHmAnA41uyogAVCmjwUKoNkAAioMXgheyASGjCyDQSwK4B/QSHIqBgMUIQJUWQ4uKQcAIASgOXkiiXgivshnRKw6BgLkJmFFotbW1LS0tBgFev359+/btt27dMjjeo49z5849fvw4LcJPG63kueeeO3nyZNdT3RYkhBw7dmz79z979uz54osvOjs7u9bTj0cMCJvSo36MFk33moAZVdnrGFAQBOyHABQHLyRRL2Q/IkRPQcA2CKhUqiNHjhj0ZfHixU5OTv/1X/9lcLxHH5OTky9cuECLxMTEHDx4UKS4Uqk8evRo1wzdFiSEqNVqpVKZlJSUkJDg4+MTFxfX0dHRtar+OmJAmI+lv0JCuyAAAiAAAjZAQNAMyPOEjeypbQMTC10AAbkTaG5u/vvf/15ZWdnZ2VlTU8PWSXQ63ZUrV/Ly8thCUGNjY2Rk5J49e2pqahoaGmjH7927N3DgwDfffNPX15eZCq1W29jYyCdz586d+/fv0yNVVVVZWVkFBQWsLUJIQ0NDa2srzcC3NEYzUy/0zTffZGZmVlVVsYb4BQkhXbtAvdDq1atpkZKSEo7j0tPTWQ1GixBCSktLMzIyrl692t7eLp757t27ra2tWq02MzOzrKysRxy6EuZjIYS0tbXl5+dfu3aNhUGba2pqys7Orq6uZrHRhNGwDfLgIwiAAAiAgD0QkKflEYwaXsgeJi36CAIWJ5CZmenl5TVx4sSwsLBVq1ZxHPf1118TQoqLi8eOHRsWFjZ58mQfH5/Tp08TQjZu3Ojm5hYcHKxSqRISEmhw+/btGz9+fEdHh6+v76lTp+jBQ4cOhYaGsugLCgocHR3r6uoIIQkJCaNGjYqPjw8ODp4wYQKzCnwbw9JCmZVK5YsvvhgcHDx58mRXV9ddu3bRtlhBoS4YeKGOjg5HR8djx47R4kZ73dnZOX/+fIVCMWXKlKioqKlTp4pkJoQolcqEhASFQhEdHZ2UlNQjDl0J83t0+fLloKAgpVIZEREREhJy48YN2tzKlStDQkJiYmIGDRq0b98+Gp5Q2PQsfoMACIAACNgbAUFXIc8T8EL2NoHRXxAwP4GOjo5Ro0bt3r2bPkb80ksvUS+k1+snTZq0efNm2uSpU6d8fX3poo3BE1yEEJVK9e677xJCfvnLX86dO5cWaW5udnNzy8vLox/Xr18/ffp0mq6pqaGJzs7OefPmbdiwgX7kf+lnaaHMD9eFQkJC7t27RwjJzs52dnauqKgghLCCIl1Qq9WJiYlarfb27duvv/66u7v77du3KQGjvb5+/bq7uztbs/r2229FMlNzEhYWRj1eLzgYEGY90ul04eHh69evp7gSExOjo6P1er1SqYyKimpubiaEnDhxYvDgwXS1zWjYtCx+gwAIgAAI2CEBeVoewahtxAvhVTY7lCK6bH0CQkL75z//OWDAgP/93/+lIV2+fJl6ocrKSo7jsrOz83/4GTJkyMWLF6nz4b8vdOPGDScnp7t37xJCrl275uzsTNOEkGXLliUmJtIH1RQKxccff0xb0ev16enpe/fu3b59++zZs9VqNT3OvvQbWBqjmZVK5Y4dOxhJlUpF10NYJSJdUKvV3A8/Li4u7AE5oSI1NTUuLi7JycmlpaWsRaHM1AuxdapecBDyQsXFxRzHsUcTKyoqOI7TaDRKpXLv3r00MK1Wy3EctXZGw2bxI9HvBIRU2e+BIQAQsEkCUBz2ThA0Vf0747HFYf/yR+t2QkBIaNnZ2R4eHgzCrVu3qBfKzs52cHBQ//gnNze3qxdas2aNQqHY+sOPu7v7b3/7W1phenq6p6fngwcPTp8+PXTo0La2Nnp81qxZ48eP37ZtW0pKytKlS2NiYuhxZmP4Xkgos1Kp/OCDD1jkM2fOfOONN/gFRbqgVqvp+0INDQ0LFixQqVT0NSeRImfOnJk2bZqbm9vo0aPT0tLoYpQQIoN9HXrKQcgLZWVlOTk5sS7fv3+f47hLly7xm6MHy8rKaLauYbPiSPQ7ASFV9ntgCAAEbJIAFAcvBC9kk9JGp0DAJAJC94CqqiqO42pra2ktZ86coV6IHqfLCwYNTJw48fDhw/Rge3u7j4/PwoULV//wM2PGjMcee4ye1ev1QUFBaWlpS5YsSUpKogcrKiocHBzoA12EkM2bN4t4IZHMSqWSPcJHCHn88cf379/P90IiXWBeiBDS1NTk7e39/vvvP3yRSaQIDb6trS0lJcXZ2bm5uVkkM9+c0HtPjzjwCfN7VF5eznHcnTt3aDBFRUX0I785Ay/UNWx6BL+lQEBIlVKIDTGAgO0RgOLgheCFbE/X6BEImEpA5B7wzDPPLFq0qLGxsaqqKjY2lnohQkh8fPzChQu/++47evXMyMjQ6XSEkDlz5qxdu5a+kfLJJ58MHjyY7Q5HCKmvr3d0dPzHP/5BI9u0aVNcXJyrq+vly5fpkerqao7jbt68SQgpKyvz9fUV8UIimZVKZUBAAHVrJ0+eHDRoEDUJ/MUloS7wvRAhJDk5OSgoiC5bGS1SVVVVUlJC48/JyXF0dKQb6xnNTJ+RM9jvu0cc+IT5Xkiv16tUqlWrVun1ep1Ot3jx4ri4OIPm+F5IKGxTJw3yWZiAiCot3DKqBwF7JADFwQvBC9mj8tFnEKAERO4BdXV1M2bM8PDwCA0NPXDgwIABA6i3qa2tnTlzpoeHx7hx4zw9PaOiougmzjk5OWFhYS4uLrGxsTNnznz55ZcNIE+dOpW+JkTdDsdxERER/Dzr1q1zdXUNDw8fM2bMmjVrRLwQIUQoM/0DQSNHjhwzZoybm9uhQ4doE3wvJNQFAy/U0tIybNgwuqxktEhOTo6Xl1dgYGBERISXl9d7771H2zKa2cCc0JxlZWWmc+AT5nshQkhhYWFkZOTw4cO9vb1VKlV5eblBc3wvJBQ2fyyQ7kcCIqrsx6jQNAjYKgEoDl5Iol4Ir7LZ6kUH/ZIUAROFlpaWNmLECH7kLS0tRUVFdLs2/vE+phsaGkpKSuhCU7dViWR+8OBBYWEh3dhNqJ5edKFrEZ1Od+vWrZKSEv4iGG2xa2ahSLoeF+la18zsSG1tLd2dnB0RSoiELVQEx/tOoL6+PjU1VavVildloirFK8FZEAABEwlAcfBCEvVCJs5gZAMBELAQgVOnTu3evfuvf/3r3r17fXx8UlJSLNQQqgUB+yGQm5s7bty4V1999dKlS/bTa/QUBEBA4gQEzYA8T9jIntoSnzQIDwRsnkBhYeGaNWvmz5//yiuvfP755zbfX3QQBKxDID09PSAgQKFQPPHEEwcOHOh2mcg6UaEVEAABeyYgT8sjGDW8kD1PZvQdBEAABEBA6gTS09MDAwP9/f2VSuWoUaOwTCT1AUN8IGDrBARdhTxPwAvZ+oRF/0AABEAABGROgNohv+9/xo4d++ijj2KZSOZDivBBQMYE5Gl5BKO2ES+EV9lkLCmELh8COTk59NsYfoMACEiBQGho6L59++RzCUGkICB7AvjCib0TBE1V/85ubHHYv/zRup0QgNDsZKDRTakROH/+fFBQEHVfgYGBY8eOnTBhAn19CKqU2mAhHtsmAMXBC8EL2bbG0TsQECOAe4AYHZwDAcsQYEZozJgxI0eOXLlyJX9bOajSMtRRKwgYJwDFwQvBCxnXBo6CgD0QwD3AHkYZfZQUgfPnzwcEBPj7+7OFIIPwoEoDIPgIAhYlAMXBC8ELWVRiqBwEJE0A9wBJDw+CszkCubm5oaGhBgtBBr2EKg2A4CMIWJQAFAcvJFEvhFfZLKp8VA4ClACEhpkAAlYjUF9fn5qa2u0fFIIqrTYiaAgECCFQHLyQRL0Q9AkCIAACIAACIAACIAACIGBpAoJmQJ4nbGRPbUuPOuoHARAAARAAARAAARAAARCQp+URjBpeCFMaBEAABEAABEAABEAABEDAJAKCrkKeJ+CFTBp1ZAIBEAABEAABEAABEAABEJCn5RGM2ka8EF5lgzJBwAoEIDQrQEYTINAjAlBlj3AhMwj0kQAUh70TBE1VH+dWH4tji8M+AkRxEDCFAIRmCiXkAQFrEoAqrUkbbYEAFAcvBC+E6wAI2C8B3APsd+zRc6kSgCqlOjKIyzYJQHHwQvBCtqlt9AoETCGAe4AplJAHBKxJAKq0Jm20BQJQHLwQvBCuAyBgvwRwD7DfsUfPpUoAqpTqyCAu2yQAxcELSdQL4VU227zkoFcSIwChSWxAEA4IEEmp8tixY9u//9mzZ88XX3zR2dkpqRGqra1taWlhIc2dO/f48ePsIxIgYAoBSSnOlIAtkUfQDMjzhI3sI2eJkUadIAACIAACIAACphNQq9VKpTIpKSkhIcHHxycuLq6jo8P04pbOqVKpjhw5wlpJTk6+cOEC+4gECICAiQTkaXkEo4YXMnHckQ0EQAAEQAAEZEZAq9VmZmZWVlZ2dnbW1NTQhZq6uroHDx7Qnuh0upqaGr1ezzqm0+muXLmSl5fHX0K5e/dua2srra2srKyxsZHlJ4TcuXPn/v37hBC1Wr169Wp6qqSkhOO49PR0ltNozYSQ0tLSjIyMq1evtre3i2c2MQxCSFVVVVZWVkFBAVubamxsjIyM3LNnT01NTUNDAyGkoaGhtbWVttjW1pafn3/t2jV+DLS5pqam7Ozs6upqFptQzPwMSIOADRMQdBXyPAEvZMNzFV0DARAAARCwXwJZWVlDhgxRqVTjxo1btWoVx3Fff/01ISQgIODcuXOUS01NDcdxWq2WfiwuLh47dmxYWNjkyZN9fHxOnz5NjyuVyoSEBIVCER0dvXr16pCQEGafrl+/7uzsfPfuXQMv1NHR4ejoeOzYMZGaOzs758+fr1AopkyZEhUVNXXqVJHMhBB+GElJSaGhoTQ/IaSgoMDR0bGuru6hEUpISBg1alR8fHxwcPCECROoc9u4caObm1twcLBKpUpISCCExMTEHDx4kBBy+fLloKAgpVIZEREREhJy48YN1uuVK1eGhITExMQMGjRo3759hBChmFkkSICAzROQp+URjBpeyOZnLDoIAiAAAiBgdwQ6OzvDwsK2b99OX3ResmRJt15Ir9dPmjRp8+bNFNapU6d8fX3pyolSqQwLC6Om4sGDB8OGDWNu6uc///miRYtoEbVanZiYqNVqb9++/frrr7u7u9++fZsGYLTm69evu7u7s8WZb7/9ViQz9UIsjObmZjc3t7y8PNr0+vXrp0+fTtM1NTU00dnZOW/evA0bNtCPBs/IUS+k0+nCw8PXr19P8yQmJkZHR1Onp1Qqo6KimpubCSEnTpwYPHhwZ2en0ZhpWfwGATshIOgq5HnCRrwQXmWzE/mhm/1LAELrX/5oHQS6EhBSZVFREcdx7Dm3vLy8br1QZWUlx3HZ2dn5P/wMGTLk4sWL1ITs2rWLtf7aa68tXLiQENLa2jpkyJCvvvqKnlKr1dwPPy4uLuwBOaGaa2pqXFxckpOTS0tLWeVCmbuGsWzZssTEREKITqdTKBQff/wxrUSv16enp+/du3f79u2zZ89Wq9X0uFEvVFxczHEcfWqOEFJRUcFxnEajoc3t3buXltVqtRzH3b5922jMLHgkbJ6AkOJsvuP8DsrT8ghGbSNeCFsc8uco0iBgIQIQmoXAoloQ6DUBIVVmZWV5eHiwaquqqrr1QtnZ2Q4ODuof/+Tm5lJXcPToUVZbRUXFwIED7969e/jw4bFjx7Ln5dj7Qg0NDQsWLFCpVHTvBJGaz5w5M23aNDc3t9GjR6elpRFCRDIrlUp+GOnp6Z6eng8ePDh9+vTQoUPb2tpohLNmzRo/fvy2bdtSUlKWLl0aExNDjxv1QllZWU5OTqxr9+/f5zju0qVLBr2mx8vKygghXWNmxZGweQJCirP5jvM7KOgq5HkCXog/uEiDAAiIEcA9QIwOzoFAfxAQUmVZWRnHcWyTg+zsbOaFQkNDP//8cxrslStX2PtC1C/Rp9oMumJgQggh06ZNe/vttydNmrR7926WmXkhQkhTU5O3t/f7779PdzKgiyosp0Gira0tJSXF2dm5ubnZ9DD0en1QUFBaWtqSJUuSkpJonRUVFQ4ODvTBtoev92zevJl5oYkTJx4+fJg1TZ+RKy8v5zjuzp079DhdT6Mf+b3meyGakx8zqxMJmycgpDib7zi/g/K0PIJRwwvxBxdpEAABMQK4B4jRwTkQ6A8CIqqMjo5es2YNIaStre25555jXuj5559fvnw5Pb5o0SLmhQgh8fHxCxcu/O677+h7OxkZGTqdzmCFhPby1KlTw4YNGzhwIN2PgR7keyFCSHJyclBQEF2uMVpzVVVVSUkJLZuTk+Po6Egf6jOa2WgYmzZtiouLc3V1vXz5Mq2nurqa47ibN28SQsrKynx9fZkXmjNnztq1a9nOctQL6fV6lUq1atUqvV6v0+kWL14cFxdHqzLqhYRipkXw2+YJiCjO5vvOOijoKuR5Al6IjSwSIAAC3RDAPaAbQDgNAlYnIKLKq1evBgQEBAYG+vv7b9myhXmh69ev+/v7KxQKPz+/nTt38r1QbW3tzJkzPTw8xo0b5+npGRUVRfeY5rsC2kWdThcYGPjCCy/we2zghVpaWoYNG7Z//35CiNGac3JyvLy8AgMDIyIivLy83nvvPVqb0cxGvRBd/oqIiOCHsW7dOldX1/Dw8DFjxqxZs4Z5oZycnLCwMBcXl9jYWP4+coWFhZGRkcOHD/f29lapVOXl5bQ2fq/ZupBQzPwAkJYdgfr6+tTUVLahokj8IooTKWVjp+RpeQSjthEvhFfZbExm6I40CUBo0hwXRGXPBMRV2d7eXlhY2NTUVFdXx7wQIaSjo6O0tJQ9SGYAsKWlpaio6N69ewbH+R9bWloeeeSR7Oxs/sFu011r1ul0t27dKikpoX+hiF9D18z8s+LphoaGkpISuqglnpOdra2tpVtysyNCCZGYhYrguPQJ5ObmhoeHr1q1ir4tJhSwuOKEStnYcUFXIc8TNuKFbGySoTsgAAIgAAIgYEYCBl6ojzWfO3fuxRdfZOstfawNxUFAIgRyc3ODgoL8/f1jYmIOHDhgyjKRRCK3chjytDyCUcMLWXn+oDkQAAEQAAEQsDYBrVY7Y8YM+gd8+t72888/v2LFilu3bvW9KtQAApIikJubGxIS4ufnFxYWFhwc3O0ykaSCt1owgq5Cnifghaw2c9AQCIAACIAACIAACICApAkwO+Tn5zdy5Mhx48ZhmchgwORpeQSjhhcyGF98BAEQAAEQAAE5EfDDDwiAgOUJhISEZGRkyOnSYLFYBV2FPE/YiBfCq2wWm/CoGAT+RQBC+xcLpEBAGgSgSmmMA6KwHQJ0E4WwsDBqrxQKRVhY2G9+8xv6+hAURzfcl6frMR61jXghbHFoOxch9ETCBCA0CQ8OQrNTAlClnQ48um0ZAtQI0VeGAgICpk+ffv78eX5TUBy8kHFHpdfr+RPF+mlMTeszR4t2SABCs8NBR5clTgCqlPgAITwZEcjNzQ0ODvb39+cvBBnED8XBC8ELGYgCH0HAjgjgHmBHg42uyoQAVCmTgUKYUidAV4TmzZtnsBBkEDcUBy8EL2QgCnwEATsigHuAHQ02uioTAlClTAYKYUqaQH19fWpqqil/UAiKgxeSqBfCq2ySvsYgOFshAKHZykiiH7ZDAKq0nbFET+RAAIqDF5KoF5KDfBAjCIAACIAACIAACIAACMibgKAZkOcJG9lHTt5zCtGDAAiAAAiAAAiAAAiAgBwIyNPyCEYNLySHSYcYQQAEQAAEQAAEQAAEQEACBARdhTxPwAtJYE4hBBAAARAAARAAARAAARCQAwF5Wh7BqG3EC+FVNjloBzHKngCEJvshRAdsjgBUaXNDig5JmgAUh70TBE1V/85cbHHYv/zRup0QgNDsZKDRTRkRgCplNFgI1QYIQHHwQvBCNiBkdAEEekkA94BegkMxELAYAajSYmhRMQgYIQDFwQvBCxkRBg6BgJ0QwD3ATgYa3ZQRAahSRoOFUG2AABQHLwQvZANCRhdAoJcEcA/oJTgUAwGLEbAlVdbW1ra0tDBUc+fOPX78OPuIBAhIgYAtKa7XPAXNgDxPYO+EXs8EFAQBuyOAd0btbsjRYckTsCVVqlSqI0eOMOTJyckXLlxgH5EAASkQsCXF9ZqnPC2PYNQ24oV6PZwoCAIgAAIgAAJ2SODu3butra1arTYzM7OhoYES0Ol0V65cycvL46/PEEJKS0szMjKuXr3a3t4uktOgTq1W29jYyGd7586d+/fvE0KqqqqysrIKCgo6OztphsbGxsjIyD179tTU1NB4GhoaWltbWfG2trb8/Pxr166xGAghtMWmpqbs7Ozq6mqW2WjM/LNIgwAI9JqAoKuQ5wl4oV7PBBQEARAAARAAAbkSUCqVCQkJCoUiOjr6008/JYQUFxePHTs2LCxs8uTJPj4+p0+fJoR0dnbOnz9foVBMmTIlKipq6tSpQjkJIQZ1Hjp0KDQ0lAEqKChwdHSsq6tLSEgYNWpUfHx8cHDwhAkTqF/auHGjm5tbcHCwSqVKSEgghMTExBw8eJAWv3z5clBQkFKpjIiICAkJuXHjBj2uVCpXrlwZEhISExMzaNCgffv2CcXMwkACBECgjwTkaXkEo4YX6uN8QHEQAAEQAAEQkB8BpVIZFhbG1m30ev2kSZM2b95Me3Lq1ClfX9/W1tbr16+7u7uz9Zlvv/1WKCf1Qvw6m5ub3dzc8vLyaJ3r16+fPn06IaSmpoYe6ezsnDdv3oYNG+hHg2fkmBfS6XTh4eHr16+n2RITE6Ojo/V6PW0xKiqqubmZEHLixInBgwd3dnZ2jZkWxG8QAAGzEBB0FfI8AS9kllmBSkAABEAABEBATgSUSuWuXbtYxJWVlRzHZWdn5//wM2TIkIsXL9bU1Li4uCQnJ5eWltLMQjmpM+HXSQhZtmxZYmIiIUSn0ykUio8//phuQpWenr53797t27fPnj1brVbTmoW8UHFxMcdx7EG+iooKjuM0Gg1tce/evbS4VqvlOO727dtdY2bdRAIEQKDvBORpeQSjthEvhFfZ+j6zUQMIdEsAQusWETKAgJUJ9FqVSqXy6NGjLNrs7GwHBwf1j39yc3MJIWfOnJk2bZqbm9vo0aPT0tJEchrUSQhJT0/39PR88ODB6dOnhw4d2tbWRgiZNWvW+PHjt23blpKSsnTp0piYGBqGkBfKyspycnJiod6/f5/juEuXLlEvxHpBj5eVlXWNmZVFAgT6SKDXiutju5IqLugq5HnCRrwQtjiUlEgQjK0SgNBsdWTRL/kS6LUqDXxLVVUVXVQRQtHW1paSkuLs7FxQUCCU06BOugQUFBSUlpa2ZMmSpKQkQkhFRYWDgwN9qu3huz2bN29mXmjixImHDx9mAbBn5MrLyzmOu3PnDj1VVFTEPvJb5HshmpPFzJpjlSMBAr0j0GvF9a45aZaSp+URjBpeSJrTDFGBgBQJ4B4gxVFBTPZNoNeq5LsIijA+Pn7hwoXfffcd9TAZGRk6na6qqqqkpIRmyMnJcXR0bGlpMZrTYJWGDcumTZvi4uJcXV0vX75MCKmuruY47ubNm4SQsrIyX19f5oXmzJmzdu1atrMc80J6vV6lUq1atUqv1+t0usWLF8fFxdH6+b1gXshozCweJECgLwR6rbi+NCq1soKuQp4n4IWkNsEQDwhIlwDuAdIdG0RmrwRMUaVWq01NTa2vr+dD4rsIery2tnbmzJkeHh7jxo3z9PSMiopqb2/Pycnx8vIKDAyMiIjw8vJ67733CCFGcwp5obKyMo7jIiIiWOvr1q1zdXUNDw8fM2bMmjVrmBfKyckJCwtzcXGJjY012EeusLAwMjJy+PDh3t7eKpWqvLyc1sbvBfNCRmNmrSMBAn0hYIri+lK/LMrK0/IIRg0vJItZhyBBQBIEcA+QxDAgCBDgERBX5aVLl5KSksLDw+mbP7xygsmWlpaioqJ79+6xHDqd7tatWyUlJfRPA7HjXXOyU90mGhoaSkpKdDpdtzn5GWpra+vq6vhHhNJCMQvlx3EQMJGAuOJMrETu2QRdhTxP2IgXwqtsctcV4pcFAQhNFsOEIO2KgFFVarXaAwcOPPnkkwqFIigoyHQjZFfo0FkQ6AUBo4rrRT2yLiJPyyMYtY14IVlPKQQPAiAAAiAAAmYhQBeCRo8eHR0dHRAQMGrUKBghs4BFJSAAAoyAoKuQ5wl4ITaySIAACIAACICALAmwhaDHHnssLCzM7/sfGCFZjiWCBgHJE5Cn5RGMjUWHtgAAIABJREFUGl5I8jMOAYIACIAACICAMIGMjIyQkBA/Pz+FQkFdEH6DAAhYiICwEO3ojKCrkOcJeCE7mrvoKgiAAAiAgE0SaGho+MUvfjF69Gj2/W/SpEmPPvooHpCzyeFGp0CgfwnI0/IIRm0jXgivsvWvKtC6nRCA0OxkoNFNGREwUOVnn3321FNP+fv7+/n5RUZGwg7JaCgRqiwIGChOFjGbPUhBVyHPEzbihbDFodknOioEga4EILSuTHAEBPqXgFFVsmUif39/vDXUvwOE1m2MgFHF2Vgfu+2OPC2PYNTwQt2OODKAAAj8/wRwD8BUAAGpERBX5WeffTZr1qwe/X0hqXUQ8YCApAiIK05SoVouGEFXIc8T8EKWmyqoGQRsjQDuAbY2ouiP/AmYokqtVpuamlpfXy//7qIHINDPBExRXD+HaPnm5Wl5BKOGF7L8lEELIGArBHAPsJWRRD9shwBUaTtjiZ7IgQAURwgRdBXyPGEjXgivssnhAoIYZU8AQpP9EKIDNkcAqrS5IUWHJE0AioMXEnR8kp65CA4EQAAEQAAEQAAEQAAEQKDPBATNgDxP2Mi6UJ+HFRWAAAiAAAiAAAiAAAiAAAh0Q0CelkcwanihbsYbp0EABEAABEAABEAABEAABCgBQVchzxPwQpjYIAACIAACIAACIAACIAACJhGQp+URjNpGvBBeZTNp8iITCPSNAITWN34oDQLmJwBVmp8pagQBYQJQHPZOEDRVwtPGGmewxaE1KKMNuycAodn9FAAAyRGAKiU3JAjIpglAcfBC8EI2LXF0DgRECeAeIIoHJ0GgHwhAlf0AHU3aMQEoDl4IXsiOLwDout0T6Pd7wNy5c48fP04IYQmRMXnuuedOnjzZNYMpZY8dO7b9+589e/Z88cUXnZ2dXevpxyO1tbUtLS0sAFN6xDIjYWME+l2VNsYT3QEBcQJQHLwQvJC4RnAWBGyZQL/fA5KTky9cuEAIiYmJOXjwoDhrpVJ59OjRrnlMKatWq5VKZVJSUkJCgo+PT1xcXEdHR9eq+uuISqU6cuQIa51hYUeQsB8C/a5K+0GNnoIAIQSKgxeSqBfCq2y4QoGAFQj0RWhVVVVZWVkFBQVsjUWr1TY2NvLDvnPnzv379+mRrvkJIQ0NDa2trV29kNHM1At98803mZmZVVVVrCEDL6TT6a5cuZKXl8dfaVGr1atXr6ZFSkpKOI5LT09nNRgtQggpLS3NyMi4evVqe3u7eOa7d++2trZqtdrMzMyysrIecWhsbIyMjNyzZ09NTU1DQwMfCyGkra0tPz//2rVr/Bhoc01NTdnZ2dXV1Sw2oZj5GZCWOIG+qFLiXUN4ICBBAlAcvJBEvZAE1YKQQAAEGIGEhIRRo0bFx8cHBwdPmDCBfvU/dOhQaGgoy1NQUODo6FhXV0cIMZqfb4H4fkYos1KpfPHFF4ODgydPnuzq6rpr1y7aFr9scXHx2LFjw8LCJk+e7OPjc/r0aZqH74U6OjocHR2PHTtGTxkt0tnZOX/+fIVCMWXKlKioqKlTp4pkJoQolcqEhASFQhEdHZ2UlNQjDhs3bnRzcwsODlapVAkJCXwsly9fDgoKUiqVERERISEhN27coGEolcqVK1eGhITExMQMGjRo3759hBChmGkR/AYBEAABEAABowQEzYA8T9jIntpGhwoHQQAEJEKgpqaGRtLZ2Tlv3rwNGzYQQpqbm93c3PLy8uip9evXT58+naaN5ud/6ef7GaHMD9eFQkJC7t27RwjJzs52dnauqKjgV6LX6ydNmrR582ba6KlTp3x9fem6k1qtTkxM1Gq1t2/ffv31193d3W/fvk3/McxokevXr7u7u9OyhJBvv/1WJDP1QmFhYdQT9oKDwTNylIZOpwsPD1+/fj3tTmJiYnR0tF6vp81FRUU1NzcTQk6cODF48ODOzk6jMdOy+A0CIAACIAACQgTkaXkEo4YXEhpoHAcBEDAbAb1en56evnfv3u3bt8+ePVutVtOqly1blpiYSAjR6XQKheLjjz+mx4XyMwvEEtRyGK1cqVTu2LGD9UGlUtH1EFa2srKS47js7Oz8H36GDBly8eJFQohareZ++HFxcWEPyAkVqampcXFxSU5OLi0tZS0KZabmhK1TEUJ6ysGoFyouLuY4jj41RwipqKjgOE6j0dDm9u7dSwPTarUcx92+fdtozCx4JEAABEAABEDAKAFBVyHPE/BCRkcZB0EABMxJYNasWePHj9+2bVtKSsrSpUtjYmJo7enp6Z6eng8ePDh9+vTQoUPb2trocaH8zMawBCFEKLNSqfzggw9YN2bOnPnGG2/w14Wys7MdHBzUP/7Jzc2lXoi+L9TQ0LBgwQKVSkX3ThApcubMmWnTprm5uY0ePTotLY0uRgnVb7CvQ085GPVCWVlZTk5OrL/379/nOO7SpUvUC7FtJOjxsrIyQkjXmFlxJEAABEAABEDAKAF5Wh7BqG3EC+FVNqOTFQdBwLwEeie0iooKBwcH+oDWw9dUNm/ezLyQXq8PCgpKS0tbsmRJUlISjVYkP7NALCGSWalUsuffCCGPP/74/v37+V6oqqqKrpB0pcR/X6ipqcnb2/v9999/+CKTSBFaSVtbW0pKirOzc3Nzs0hmAy/UUw4TJ048fPgwC5vSKC8v5zjuzp079HhRURH7yG+O74W6xszqREIuBHqnSrn0DnGCgNQIQHHYO0HQVPXvZMUWh/3LH63bCYHeCa26uprjuJs3bxJCysrKfH19mRcihGzatCkuLs7V1fXy5csUo0h+ZoFYQiSzUqkMCAig7/mcPHly0KBB1CewsoSQ+Pj4hQsXfvfdd/TinpGRodPp+OtCNKTk5OSgoCC6bGW0SFVVVUlJCc2ck5Pj6OhId6UzmtlgoYaW6hGHOXPmrF27lu3IR3uk1+tVKtWqVav0er1Op1u8eHFcXByt3KgXEoqZFsFvuRDonSrl0jvECQJSIwDFwQvBC0lNlYgHBKxHwJR7gFarTU1Nra+v54e1bt06V1fX8PDwMWPGrFmzhu+FysrKOI6LiIgwJT+zMSxBCBGqnP6BoJEjR44ZM8bNze3QoUO0CX7Z2tramTNnenh4jBs3ztPTMyoqim5FzV8XethES0vLsGHD6LKS0SI5OTleXl6BgYERERFeXl7vvfcebctoZqNeqEcccnJywsLCXFxcYmNj+StdhYWFkZGRw4cP9/b2VqlU5eXlNAyjXkgoZv5AIC19AqaoUvq9QIQgIBcCUBy8ELyQXNSKOEHA/ATE7wGXLl1KSkoKDw+nr9wYNN/Q0FBSUkJXXQxOGf3Yo/wimR88eFBYWEg3djPaELU6RUVFdMc5oTwGx1taWgyK6HS6W7dulZSUsD+RxIp0zcxOdZsQ6ZpQ2draWro1uVAGdlwkZpYHCYkTEFelxINHeCAgOwJQHLwQvJDsZIuAQcBsBIzeA7Ra7YEDByZPnqxQKEaOHGnUCJktAlQEAiDwYwJGVfnjLPgEAiBgNgJQHLyQRL0QXmUzm8pREQgIEzAQGl0ICgkJmTRp0ogRI0aNGgUjJAwPZ0DAIgQMVGmRNlApCIDADwSgOHghiXqhH6Yo/g8CIGBxAmwhSKlUjh8/3u/7Hxghi3NHAyAAAiAAAiAgAQKCZkCeJ2xkT20JTAyEAAJ2QSAjIyMkJMTPz2/EiBHUBeE3CIBA/xKwi0sPOgkCICAZAvK0PIJRwwtJZmYhEBCQCYEbN24sWrQoICCAff976aWXHnvsMTwgJ5MBRJggAAIgAAIg0HsCgq5CnifghXo/FVASBOyZQHt7+7vvvhsZGUkdkVqthh2y5/mAvoMACIAACNgJAXlaHsGobcQL4VU2O5Efutm/BIwKjS0T+fv7jx49GqtD/TtGaN3eCBhVpb1BQH9BwGoEoDjsnSBoqqw2C402hC0OjWLBQRAwLwERodFlojlz5gj9fSHzRoLaQAAEKAERVQIRCICA2QlAcfBC8EJmlxUqBAHZEDDlHqDValNTU+vr62XTKwQKAnImYIoq5dw/xA4C0iIAxcELwQtJS5OIBgSsSQD3AGvSRlsgYAoBqNIUSsgDAuYiAMXBC8ELmUtNqAcE5EcA9wD5jRkitnUCUKWtjzD6Jy0CUBy8kES9EF5lk9alAtHYKAEIzUYHFt2SMQGoUsaDh9BlSACKgxeSqBeSoZoQMgiAAAiAAAiAAAiAAAjIjICgGZDnCRvZU1tmkwjhggAIgAAIgAAIgAAIgIAMCcjT8ghGDS8kwzmIkEEABEAABEAABEAABECgPwgIugp5noAX6o9JhDZBAARAAARAAARAAARAQIYE5Gl5BKO2ES+EV9lkKCWELD8CEJr8xgwR2zoBqNLWRxj9kxYBKA57Jwiaqv6dqtjisH/5o3U7IQCh2clAo5syIgBVymiwEKoNEIDi4IVs3wvV1ta2tLT0Qq7Hjh3b/v3Pnj17vvjii87Ozl5UYqEiXTs1d+7c48eP9665q1evzpo1S6fT0f4a/N65cychpC/1mxgVBd7U1MTyHzp0KC8vj320ZoKN/rvvvnv27FlrNt1tWwaj//LLL3/11VfdljKaAfcAo1hwEAT6kQBU2Y/w0bQdEoDi4IVs3wupVKojR470Qt5qtVqpVCYlJSUkJPj4+MTFxXV0dPSiHksU6dqp5OTkCxcu9K6tZ5999tixYx0dHSt++AkODh43bhz99MorrxBC+lK/iVGp1WqO4zZu3Mjyq1Sq3bt3s4/WTLDRf/nllz09PWfMmKHX660ZgEhbBqP/5ZdfRkVFieQXOYV7gAgcnAKBfiEAVfYLdjRqtwSgOHghWXohnU535cqVvLw8/oLP3bt3W1tbm5qasrOzq6urqaobGxsjIyP37NlTU1PT0NBAD4oU12q1mZmZNKdarV69ejUtUlJSwnFceno6u1gYrYQQUlpampGRcfXq1fb2dtOb02q1jY2NrHJCyJ07d+7fv08IqaqqysrKKigoYAtTRjvV0NDQ2tpKa2hra8vPz7927RqLgRBilA8h5ObNm15eXg8ePOC3Pn/+/BUrVvCP8OunVd27dy8rK+v27ds0W1FRUV5enkE9QpT4NbO0Wq1+4okn3N3d6+vr6UEDL9QVBetXt8H0KBJCCH/08/PzOY47f/680eEQGbs+gjI6ZF1HX6/XjxgxIisri5E0PYF7gOmskBMErEMAqrQOZ7QCApQAFAcvJFEvJPIqW3Fx8dixY8PCwiZPnuzj43P69Gk6m5VK5cqVK0NCQmJiYgYNGrRv3z5CyMaNG93c3IKDg1UqVUJCAiFEpHhCQoJCoYiOjv70008Nvg13dHQ4OjoeO3aMtmW0ks7Ozvnz5ysUiilTpkRFRU2dOtX05g4dOhQaGsouTAUFBY6OjnV1dQkJCaNGjYqPjw8ODp4wYQL1S107RQiJiYk5ePAgIeTy5ctBQUFKpTIiIiIkJOTGjRsifAghmzdvXrhwIWuaJrp6IVY/IUSpVC5fvjwkJGTixIkuLi4nT55cvnx5ZGTkyJEjIyMjmSUzSsmgIf5HtVq9adOmf/u3f0tKSqLH+V7IKAoTg+lpJAaj//DpQUdHxz//+c9GYzh69GhISAhbNbp+/bqzs/Pdu3dNjE18kpgypQkhr7zyyquvvsqHaWJaRGgm1oBsIAAC5iUAVZqXJ2oDAXECUBy8kES9kNDE1ev1kyZN2rx5M81w6tQpX19f+uVbqVRGRUU1NzcTQk6cODF48GC6kMJ/oEi8eFhYGH9xRq1WJyYmarXa27dvv/766+7u7nQNRKiS69evu7u7Myfw7bffCuWk35L5zTU3N7u5ubF3Y9avXz99+nRCSE1NDe1pZ2fnvHnzNmzYQD/yO0WPUK+i0+nCw8PXr19PDyYmJkZHR9Ov6UJ84uPjk5OTaX72u1svNGHChO+++44Q8pvf/MbV1XXPnj2EkAcPHowZM+bw4cNUV0IjxVoxSFAvdPnyZRcXl8rKSkII3wsJoVAqleLBiIyCQQD8j/x1oQMHDgwYMKCwsNBoDA8ePBg2bNi5c+do8Z///OeLFi2i6W5jEwclNGRdR//9999XKpX8+JEGARAAARAAARAAAVMICJoBeZ6wkT21hUausrKS47js7Oz8H36GDBly8eJF6i727t1LC2q1Wo7jqHXhf3EUL75r1y5+u/T1Fe77HxcXF/aAnFAlNTU1Li4uycnJpaWltB6hnDRag+aWLVuWmJhICNHpdAqF4uOPP6ZflNPT0/fu3bt9+/bZs2er1WpaM79T9Aj1QsXFxRzHsacBKyoqOI7TaDQifMLCwj744AN+xx8+ONetF0pJSaFFsrKyHBwc2KNxy5Yte/311wkhIn03aIt9pF6Itr5s2TIDL6TX642iUCqV4sH0IhK6LjRkyJCQkJDhw4e7u7v/7ne/ExmO1157ja6ttba2DhkyhO1k0G1s4qCUSmW3U5rSO3nypI+PDyOJBAiAAAiAAAiAAAiYSECelkcwahv3QtnZ2Q4ODuof/+Tm5tLv+kePHqWjfv/+fY7jysrK6PdptneCicVpJWxloKGhYcGCBSqViu6dIFLJmTNnpk2b5ubmNnr06LS0NJGcSqWSRUubS09P9/T0fPDgwenTp4cOHdrW1kYImTVr1vjx47dt25aSkrJ06dKYmBiaWcgLZWVlOTk50TyEEMrh0qVLInwiIiLef/99VoQmuvVCLPi8vDx3d3dWfMWKFfQlK5G+s8wGCeaFiouLXVxcbty4wV8XEkLBJ2k0mF5EQr3Q0qVL8/Pzy8rK6FiIDEdFRcXAgQPv3r17+PDhsWPHsufluo2NECISHr+40JSmDE+cOOHn52fAEx9BAARAAARAAARAoFsCgq5Cnids3AtVVVWxBR+DoRX64jhx4kT61BZ98d2U4rRm5oUIIU1NTd7e3tQziMRAC7a1taWkpDg7OxcUFJjenF6vDwoKSktLW7JkCX1hpqKiwsHBgT71R1/sYV6I3ynaKF0XKi8v5zjuzp079GBRURH7KMTnueee+/Wvf03zs99990LdUmJtsQTzQg8fDlyxYsWsWbOYFxJBwe+XUS/Ui0gM3heiEYrEQAiZNm3a22+/PWnSJP7Gd93GZvqc5HuhrqP/+9///ic/+QkjiQQIgAAIgAAIgAAImEhAnpZHMGob8UIir7LFx8cvXLiQvqyi1+szMjJ0Op3IusecOXPWrl3LNmEzpTidOnwvRDeVDgoKoksERiupqqoqKSmhZXNychwdHVtaWozmNIiWzdRNmzbFxcW5urpevnyZEFJdXc1x3M2bNwkhZWVlvr6+zAsZdIrtnaDX61Uq1apVq/R6vU6nW7x4cVxcHK2f/72c/8U6OTl51qxZLAaa6LsXIoQI9f2///u/2YtP/Hb5XqimpmbQoEGDBw+m1kIEBb9fRr1QLyIx6oVEYiCEnDp1atiwYQMHDvz6669Zp0yJTSQ8fnH+kHUd/ZdeemndunWsXdMTIkIzvRLkBAEQMCMBqNKMMFEVCHRLAIqjrwAIGgsZnrARLySyxWFtbe3MmTM9PDzGjRvn6ekZFRVFd44W+uKYk5MTFhbm4uISGxv7cMctU4pT5Rh4oZaWlmHDhu3fv1+okpycHC8vr8DAwIiICC8vr/fee08op5AXKisr4zguIiKCSXfdunWurq7h4eFjxoxZs2YN80IGnWJeiBBSWFgYGRk5fPhwb29vlUpVXl5OaxPic+vWLQ8PD/7u5Ka8L9TtM3Iifd+yZcvEiRNZH1mC74UIIevWreM4ji2zCKHg90vICwkNulAkRr0QDcnocNC3vAIDA1944QXWHYNRFopNBBS/a3wvZDD67e3t3t7eV69e5TdtYlpEaCbWgGwgAALmJQBVmpcnagMBcQJQHLyQoN0TnzqWPtvt1GxpaSkqKrp3717vIuljcdpo10p0Ot2tW7dKSkronwZisXXNyU51m2hoaCgpKaFrX91mZhlqa2vr6urYR/HEwoUL//CHP4jn6fXZrn1/9tlnjx8/3osKe4eCNWSWSIRiaGlpeeSRR7Kzs1lzPU10Dc/EGo4fPx4fH2+Qub6+PjU1VavVGhw3+Nit0Azy4yMIgIClCUCVliaM+kGATwCKgxeSqxfiz2Ok+0igoqLiP/7jP/pYienF33nnHfbIoumlLJHTXJGcO3fuxRdfZKt2lghVpM61a9fm5+d3zZCbmzt27Ng5c+aIPACAe0BXbjgCAv1LAKrsX/5o3d4IQHHwQvBC9qZ69Nf8BJ5//vkVK1bcunXL/FX3rcbc3NwRI0b4+/s/+uijb775ZtdlItwD+gYYpUHA/ASgSvMzRY0gIEwAioMXkqgXEvmXbOH5jDMgAAKGBHJzc0ePHu33/U9AQIDBMhGEZsgLn0GgvwlAlf09AmjfvghAcfBCEvVC9iVE9BYELEmAb4f8/PwCAgKEloksGQXqBgEQAAEQAAEQkCIBQTMgzxM2so8c/Wds/AYBEDA7AX9//yeffNLPzy80NDQjI0OKV2XEBAIgAAIgAAIgYC0C8rQ8glHbiBey1uijHRCwfQK7d++mhurxxx9ftGjRE0888dRTTx04cKDr60O2zwI9BAEQAAEQAAEQ+DEBQVchzxPwQj8eXnwCAfsmsHv3bn9//yeeeGLu3LmhoaFJSUmXLl2ybyToPQiAAAiAAAiAwL8IyNPyCEZtI14Ir7L9a4YiBQK9JXDw4MERI0YEBAQILQRBaL1Fi3IgYCkCUKWlyKJeEDBGAIrD3gmCpsrYhLHeMWxxaD3WaMlGCeTm5oaHh4svBEFoNjr46JaMCUCVMh48hC5DAlAcvBC8kAyFi5BBoDsC9fX1qamp3b4RhHtAdyBxHgSsTQCqtDZxtGffBKA4eCF4Ifu+BqD39k0A9wD7Hn/0XooEoEopjgpisl0CUBy8ELyQ7eobPQOB7gjgHtAdIZwHAWsTgCqtTRzt2TcBKA5eSKJeCK+y2felCb23EgEIzUqg0QwImEwAqjQZFTKCgBkIQHHwQhL1QmaY3agCBEAABEAABEAABEAABEBAlICgGZDnCRvZU1t0yHASBEAABEAABEAABEAABEDADATkaXkEo4YXMsOcQBUgAAIgAAIgAAIgAAIgYA8EBF2FPE/AC9nDpEUfQQAEQAAEQAAEQAAEQMAMBORpeQSjthEvhFfZzDC1UQUIdEcAQuuOEM6DgLUJQJXWJo727JsAFIe9EwRNVf9KA1sc9i9/tG4nBKQvtNra2paWFjYcx44d2/79z549e7744ovOzk52SgoJg2jnzp17/Pjx3gV29erVWbNmEUJ0Oh3tssHvnTt3EkL60oQpgVHgTU1NLPOhQ4fy8vLYR2sm2Oi/++67Z8+etWbT3bZlMPQvv/zyV1991W0poxmkr0qjYeMgCMiUABQHLwQvJFPxImwQMAMB6d8DVCrVkSNHWFfVarVSqUxKSkpISPDx8YmLi+vo6GBn+z1hEG1ycvKFCxd6F9Wzzz577NgxQkhHR8eKH36Cg4PHjRtHP73yyiuEkL40YUpgarWa47iNGzeyzCqVavfu3eyjNRNs9F9++WVPT88ZM2bo9XprBiDSlsHQf/nll1FRUSL5RU5JX5UiweMUCMiOABQHLwQvJDvZImAQMBsBkXvA3bt3W1tbtVptZmZmQ0MDXaC4cuVKXl4ef6GGEELzVFZWdnZ21tTUsLWaurq6Bw8e0Fh1Ol1NTQ375qrT6YxWVVpampGRcfXq1fb2dkJIY2NjZGTknj17ampqaAxqtXr16tW0zpKSEo7j0tPTGQ4Tq2UhdY2B3+uysrLGxkZWOSHkzp079+/fp0eqqqqysrIKCgpYf7tG29DQ0NraSvO3tbXl5+dfu3aNdo0epM01NTVlZ2dXV1eztm7evOnl5cXosePz589fsWIF+0gIYU3Qqu7du5eVlXX79m2ap6ioKC8vz6AeIUr8allarVY/8cQT7u7u9fX19KCBF+rKgRBiYjA9ioQQwh/9/Px8juPOnz9PCOkag1arFRo7E2MTmvBGh6zr0Ov1+hEjRmRlZTGSpidEVGl6JcgJAiBgIgEoDl4IXshEsSAbCNggAZF7gFKpTEhIUCgU0dHRn376aXFx8dixY8PCwib/P/beBS6q69773oIQuVhERS4iIiAO5Q2DjARTpGlIdbxfgzFWW3yskZQ3R6JvTdRqTEiIiT4mUPOYmMSkR2rkxMaa9MTaWIRYIBxeJWoUAUEuCkiqQyBUwGHW68l6s87OzOzN3Gf2nh+ffMiavdf6r//6rvWbvX/uCzNmBAUFnThxguIoKSkJCAhQqVRTpkxZv349x3Fff/013TV+/PjPPvuMlltbWzmO02g0hBCjoQYHB5ctWxYWFjZz5szExMRZs2YRQrZu3err6xsZGalSqTIzM/XOhu/evevp6UkvnpgVVqgyIYQ/6uzs7NjYWDbrly5d8vT0bG9vv3fynZmZOWnSpPT09MjIyGnTptHTbsNsU1JS3n77bUJIVVVVRESEUqmMj4+Pjo6+cOECDatUKtetWxcdHZ2SkjJixIh9+/bR7du3b8/IyGBds4KhF2JdKJXKNWvWREdHJycne3t7Hzt2bM2aNQkJCRMnTkxISGCWzCh8Ft+woFart23b9vOf/zw7O5vu5XshoxwoxiGTMTcTvdm/d+ugp6fnBx98YDSHQ4cORUdHM+99/vx5Ly+vmzdvmpib+AoxnDLDqSeEPPHEE08++aQh0iG3iKhyyLaoAAIgYC4BKA5eyEW9EB5lM1fMqA8CFhAQEZpSqVQoFPQsX6fTTZ8+ffv27bSL48ePBwcH9/b2Dg4OKhSK3Nxc+k26YsWKIb2QUKjz58/7+fmxU/ZvvvmG9qV365Farc7KytJoNNevX3/mmWf8/PzoNRCzwgpVpifKbNTd3d2+vr7s2ZjNmzfPnTuXZtXa2koLg4ODS5cu3bJli9Hv1OqxAAAgAElEQVRsqVHRarVxcXGbN2+mdbKyspKSkuhpulKpTExM7O7uJoQcPXp05MiR9CpTenp6Xl4erc//Le6Fpk2b9u233xJCXnjhBR8fn7179xJC+vr6YmJiDh48SOfI6Dzyu9ArUy9UVVXl7e3d2NhICOF7ISEOSqVSPBmRKdBLgP+Rf13owIEDw4YNu3z5stEc+vr6xo4dy6z4b37zm+XLl9NQQ+YmDkpoyvQWKiHkrbfeUiqV/PxNLIuo0sQIqAYCIGA6ASgOXshFvZDpixg1QQAE7EFAqVS++uqrNHJjYyPHcaWlpdXf/wQEBHzxxRc1NTUcx7Fb5ioqKob0QkKhWltbvb298/Ly6urq+MPRO8Wkj69w3/14e3uzG+TMCitUmXohNmpCyKpVq7KysujtUmFhYR9++CHNTafTnTp1Kj8/Pzc3d+HChWq1mm7Xy5Z6oStXrnAcR+/xI4Q0NDRwHNfS0kK7y8/Pp201Gg3HcdTaKRSKd955h8+BlsW9UEFBAa1WUlLi4eHBbo1btWrVM888QwgRGbhhX3QL9UKEkGXLlq1atUrPCwlxUCqV4slYkAm9LhQQEBAdHT1u3Dg/P7/XX3+dHsKNzsVvf/tbem2tt7c3ICCAvclgyNzEQSmVSqNTpjf19yb32LFjQUFBQmCxHQRAAARch4CgGZDmDpm8U9t11gcyAQH3JKBUKg8dOkTHXlpa6uHhof7hT3l5eUlJib+/P+PT1NQ0pBcSCkUIOXny5OzZs319faOiooqKimhYvVNMdmWgs7Pz0UcfValU9N0JZoUVqcwfNSHk1KlTo0aN6uvrO3HixOjRo/v7+2lWCxYsmDp16s6dOwsKClauXJmSkmI0W+qFSkpKhg8fzijduXOH47jKykrqhRhkur2+vp4QEh8f/9Zbb7EmrCDuhVioiooKPz8/1mrt2rX0ISuRgbPKegXmha5cueLt7X3hwgX+dSEhDnyMRpOxIBPqhVauXFldXV1fXz/kXDQ0NNx33303b948ePDg5MmT2f1yQ+ZGCBFJj9+cP2V6C5Ve6AsJCdHjiY8gAAIg4IIEpGl5BLOGF3LBNYaUQEB6BPjnfNTksCfy2WDq6+s5jmMPqZeWlvK9UGxs7Mcff0wrnz17lj4vJBSKxezv7y8oKPDy8qJ3jiUnJ9P7u2gF5oUIIV1dXWPGjKGewaywIpX5o6bXHCIiIoqKilasWMEemGloaPDw8KDpEUK2b9/OvJBettQLXb16leO4Gzdu0CHQi2n0I787/on1nDlznn/+ecaEFaz0QiIDZ13oFZgXIoSsXbt2wYIFzAuJcOCPy6gXsiATveeFaJ4iORBCZs+e/corr0yfPp3/4rshc6MvY2DX6PSA8Jvzp0xv6gkhv//97x944AG95vgIAiAAAi5IQNBVSHMHvJALrjGkBALSI8A/5yOEpKenZ2Rk0MdRdDpdcXGxVqslhCQlJeXk5BBC+vv758yZw/dCS5YsWbNmDd21fPly9u4Eo6Gamppqa2spprKyMk9PT3rr3aJFizZu3Mje1cb3QvSN0hEREfQSgVlhjVbWu1BDk9m2bVtaWpqPj09VVRXd0tzczHHcxYsXCSH19fXBwcHMC+llS72QTqdTqVTr16/X6XRarfaxxx5LS0ujofiQ+SfWeXl59I8L0Wrst5VeSGQeP/30U/bUE+uO2o9t27bRLa2trSNGjBg5ciS1FiIc+OMy6oUsyMSoFxLJgRBy/PjxsWPH3nfffex9HnpTLJSbSHr8ofGnTG/q790MuXr16k2bNvFhogwCIAACrklAmpZHMGuZeCE8yuaaakFWMiMgIjT+Od+9l2K1tbXNnz/f399/ypQpo0aNSkxMpO+GPnfu3Pjx48PDw0NDQ3fs2MH3QufPnw8NDQ0LCwsJCXnppZeYFzIaqqysLDAwMDw8PD4+PjAwcP/+/RR1WVmZQqHw9vZOTU01PBvu6ekZO3bsm2++KZShUFijOeidKNME6LWv+Ph4/tRv2rTJx8cnLi4uJiYmJyeHeSG9bKkXIoRcvnw5ISFh3LhxY8aMUalUV69epdH4kPkn1teuXfP392cPYrGurfdCQgPfsWNHcnIy64gV+NeFCCGbNm3iOI5dZhHiwB+XkN8wNxPD2adJCuVAn/IKDw9//PHH2XD0plgoN6HlpNecP2V6Uz8wMDBmzJhz587xuzaxLKJKEyOgGgiAgOkEoDi8O0HQVJm+jOxRE684tAdVxAQBPQLmCq2np6empub27dv8OAMDA5cvX+7q6mpvb+d7Ifp3Quvq6tjtZPxWhqG0Wu21a9dqa2vZ3/Dh1zexbFZYw8om9kL/sE9tbS29OGZiq7a2NvpKblPqZ2RkvPHGG6bUtKCO4cAfeeSRI0eOWBCqs7PTXA78XmySiVAOPT09P/rRj0pLS/k9mlU2TM/E5keOHElPT9er3NHRUVhYSN8sr7eL/9FcVfLbogwCIGAuASgOXgheyFzVoD4IyIeAbY8Bhl5IPqQcPpKGhoZf//rXDut2z5497EZEh3VqtCNbZfLZZ5/94he/YJfsjPZlv40bN26srq42jF9eXh4bG5uRkUFfnmFYgRBiW1Ua7QIbQQAEGAEoDl4IXojJAQUQcDsCtj0GaDSaefPmsT8N5HY0MWBXIrBkyZK1a9deu3bNlZL671zKy8snTJgQGhp6//33v/baa4aXiWyrSlcbPvIBAVcjAMXBC8ELuZoqkQ8IOI4AjgGOY42eQOB7AuXl5VFRUSEhIaGhoeHh4XqXiaDK7znh/yDgCAJQHLyQi3ohPMrmiC8A9OH2BCA0t18CAOAcAswOhXz3M2HCBHaZCKp0zpSgV3clAMXBC7moF3JXSWLcIOBoAvRUDL9BAAScSyAmJiYkJCQ2Nra4uNjR3wLoDwRAwL0JCJoBae6QyTu13XtNYvQgAAIgAAJyJnD06FH6uvmwsLC0tLSkpKS0tLQDBw4YPj4kZwoYGwiAgGsQkKblEcwaXsg1lhWyAAEQAAEQAAFjBKgRmjx58s9+9rOYmJjs7GyR18oZC4BtIAACIGBLAoKuQpo74IVsuTgQCwRAAARAAARsSOBPf/pTeHg4vRyEC0E2BItQIAACFhOQpuURzFomXgiPslm8oNEQBEwnAKGZzgo1QcB6AuXl5QqFQvxCEFRpPWdEAAHTCUBxeHeCoKkyfRnZoyZecWgPqogJAnoEIDQ9IPgIAvYj0NHRUVhYOOQTQVCl/aYAkUHAkAAUBy8EL2SoC2wBAXchgGOAu8w0xikdAlCldOYKmcqBABQHLwQvJAclYwwgYBkBHAMs44ZWIGA/AlCl/dgiMggYEoDi4IXghQx1gS0g4C4EcAxwl5nGOKVDAKqUzlwhUzkQgOLghVzUC+FRNjl8wWAMLk8AQnP5KUKCbkcAqnS7KceAnUoAioMXclEv5FRdoHMQAAEQAAEQAAEQAAEQcAsCgmZAmjtk8k5tt1h6GCQIgAAIgAAIgAAIgAAIOJWANC2PYNbwQk5dTegcBEAABEAABEAABEAABKRDQNBVSHMHvJB0lh4yBQEQAAEQAAEQAAEQAAGnEpCm5RHMWiZeCI+yOVUU6NxdCEBo7jLTGKd0CIiocvHixUeOHLHfUNra2np6elj8w4cP5373s3fv3v/8z/8cHBxku1yhoJetlXDOnTu3YMECrVZLh6z3+6WXXiKEWNmFKdAo866uLlb53XffraioYB8dVmCz/9prr/3tb39zWL8mdqQ3+7/85S///ve/m9hWr5qI4vRqyvijoKuQ5g6ZeCG84lDGksPQXIcAhOY6c4FMQIASEFFlXl7emTNn7AdKpVK99957LL5arVYqldnZ2ZmZmUFBQWlpaXfv3mV7nV7Qy9ZKOI888sjhw4fv3r279vufyMjIKVOm0E9PPPEEIcTKLkwhplarOY7bunUrq6xSqXbv3s0+OqzAZv+Xv/zlqFGj5s2bp9PpHNb7kB3pzf5f//rXxMTEIVsZrSCiOKP1ZblRmpZHMGt4IVmuUgwKBOxCAMcAu2BFUBCwgoCIKjs7O3t7e2nsmzdv9vb2dnV1lZaWNjc38zusq6srLi4+d+7cwMAA267Vas+ePVtRUcG/8kODaDSa06dP19bWJiQk7N27t7W1tbOzkxCiVqs3bNhAI9TW1nIcd+rUKfGAhBDLeq+vr7916xYLTgi5cePGnTt36JampqaSkpJLly6xa1O3bt3Sy5YPhxDS399fXV395Zdf8iEIQbt48WJgYGBfXx8/gWXLlq1du5a/hd8FDXX79u2SkpLr16/TajU1NRUVFfw4RrHzY+qV1Wr1gw8+6Ofn19HRQXfxvZAhB0KIiZkQQsxKhj/71dXVHMd9/vnnNCXDNDQajdD0mZie0dyE5stw9nU63YQJE0pKSvR4mvJRRHGmNJdHHUFXIc0d8ELyWJYYBQg4ggCOAY6gjD5AwBwCIqpMSUl5++23aTClUrlu3bro6OiUlJQRI0bs27ePEDI4OLhs2bKwsLCZM2cmJibOmjWLVr5y5crkyZMVCsWMGTOCgoJOnDjBgmRmZoaFhSUlJS1btszX1zcyMlKlUmVmZup5obt373p6eh4+fFgkoDW9Z2dnx8bG0uCEkEuXLnl6era3txNCMjMzJ02alJ6eHhkZOW3aNHrOvXXrVr1s+XCqqqoiIiKUSmV8fHx0dPSFCxfYeA2h3eO2ffv2jIwM1jstGHohfhdKpXLNmjXR0dHJycne3t7Hjh1bs2ZNQkLCxIkTExISqGUVwq7XEf+jWq3etm3bz3/+8+zsbLqdeSGjHAghpmRCCDE3Gb4XunfroKen5wcffCA0HYcOHYqOjmYXjs6fP+/l5XXz5k0T0xPKzegiJ4QYzj4h5IknnnjyySf5ME0siyjOxAgyqCZNyyOYNbyQDNYkhgACDiKAY4CDQKMbEDCZgIgq9c7FExMTu7u7CSFHjx4dOXLk4ODg+fPn/fz82LWjb775hv4VxenTp2/fvp2mcPz48eDgYFpHqVQqFAr2L/p69x2p1eqsrCyNRnP9+vVnnnnGz8+PXgDR6XRGA1rTe3d3t6+vL3swZvPmzXPnzqUJt7a20sLg4ODSpUu3bNlCP+ply+Botdq4uLjNmzfTallZWUlJSfQ0XalUGkIjhKSnp+fl5dH67PeQXmjatGnffvstIeSFF17w8fHZu3cvIaSvry8mJubgwYNClFh8owXqhaqqqry9vRsbGwkhzAsJcVAqleKZiK8Bo2noOeEDBw4MGzbs8uXLhBCjafT19Y0dO/azzz6j0X7zm98sX76clodMTwSU0HxRLPz7OQkhb731llKpFBqOyHYRxYm0ktkuQVchzR0y8UJ4lE1mMsNwXJMAhOaa84Ks3JmAiCrZ6T795/b8/HwKSqPRcBx3/fr11tZWb2/vvLy8uro6xrCxsZHjuNLS0urvfwICAr744gsa5NVXX2U19dwFfXaF++7H29ub3SAnFNDK3letWpWVlUVv5QoLC/vwww9pYjqd7tSpU/n5+bm5uQsXLlSr1XS7XrYMzpUrVziOo7f5EUIaGho4jmtpaRGCRghRKBTvvPMO40ALQ3qhgoICWrOkpMTDw4PdGrdq1apnnnlGiJJeL3ofqRcihCxbtmzVqlV8LyTEQalUimdCCLEgGbVaHRAQEB0dPW7cOD8/v9dff52mKpTGb3/7W3ptrbe3NyAggL3JYMj0RHJTKpWGi5ymoTf79yb32LFjQUFBejxN+SiiOFOay6OONC2PYNYy8ULyWFsYBQiAAAiAAAjYigA73aen9YcOHaKR79y5w3FcfX09IeTkyZOzZ8/29fWNiooqKioihJSWlnp4eKh/+FNeXq4XxPDf2tldUp2dnY8++qhKpaLvThAJaE3vp06dGjVqVF9f34kTJ0aPHt3f309Ht2DBgqlTp+7cubOgoGDlypUpKSl0u97ZMINTUlIyfPhwxpzCqays1BsvH1p8fPxbb73FmtDCkF6I8a+oqPDz82PN165du2HDBhFKrKZhgXmhK1eueHt7X7hwgV0XEuKgVCrFMxFfA4Y50C1qtXrlypXV1dX19fVsLgghQmk0NDTcd999N2/ePHjw4OTJk9n9ckOmJwKK35Y/X4ZrlV4dDQkJERoOtosTEHQV0twBLyQ+3dgLAiAAAiAAApIkwE73RU7r6cD6+/sLCgq8vLy6u7ubmproVSPDMfPPNQkhycnJBw8eZNWYFyKEdHV1jRkzhhoGkYDW9K7T6SIiIoqKilasWMGelmloaPDw8KC3AtIHe5gX0suWwbl69SrHcTdu3KDJ1NTUsI/88fLPrefMmfP888+zgdOClV5oSEp63dGPzAvduxtt7dq1CxYsoF5IhAN/UEZd2b2HfCxIhj/7LFWRNAghs2fPfuWVV6ZPn85/8d2Q6Ynkxm/Lny/DtUoI+f3vf//AAw+wVFEwi4A0LY9g1vBCZs0+KoMACIAACICANAiw030hL9TU1FRbW0sHU1ZW5unpSd8al56enpGRQR9u0el0xcXFWq1WLwghZNGiRRs3bmTvatM7G87Ly4uIiKCXCIwGtLJ3Qsi2bdvS0tJ8fHyqqqroKJqbmzmOu3jxIiGkvr4+ODiYeSG9bBkcnU6nUqnWr1+v0+m0Wu1jjz2WlpZGowmdW+fl5S1YsEBvEVjphehjSEaxf/rpp+ypJ71O+V6otbV1xIgRI0eO3L17twgH/qCEvJAFyejN/pDTQQg5fvz42LFj77vvvq+//pqNy5T0jC4nvfWp54X0Zv/ezZCrV6/etGkT6xcFswgIugpp7oAXMmv2URkEQAAEQAAEpEGAne4LnSaWlZUFBgaGh4fHx8cHBgbu37+fDqytrW3+/Pn+/v5TpkwZNWpUYmIifdM0/zyVEFJWVqZQKLy9vVNTU/WenieE9PT0jB079s0337z3zi6jAa3snbodjuPi4+P587Fp0yYfH5+4uLiYmJicnBzmhfSy5cO5fPlyQkLCuHHjxowZo1Kprl69SgPyx8s/t7527Zq/vz//beP0iR29d2rzu+CHEnIgRinde5PBjh07kpOT+WNkZb4Xusd806ZNHMfRyyxCHEzJRGjKRJIx6oVoSkangz7oFR4e/vjjj7Ph6C1Uc0Hxh8afL8O1OjAwMGbMmHPnzvG7Rtl0AtK0PIJZy8QL4VE201cwaoKAxQQgNIvRoSEI2ImAlarUarXXrl2rra1lf5yH5dnT01NTU3P79m22xcqCYUA79d7Z2VlbW0uvZZmec1tbG30rtylNMjIy3njjDVNqmlvHkNIjjzxy5MgRc+MQQizjwO/IJskIpdHT0/OjH/2otLSU36PpZcPcTG975MiR9PR0fv2Ojo7CwkKNRsPfaLRspeKMxpTcRkFXIc0dMvFCeMWh5ISEhKVIAEKT4qwhZ3kTgCqdMr8NDQ2//vWvHdP1nj172I2IjulRpBdbJfPZZ5/94he/YFftRHq0x66NGzdWV1frRS4vL4+Li8vIyBB3O1Acfeu6NF2P8azhhfS0gI8gAAKCBHAMEESDHSDgJAJQpZPAo1urCCxZsmTt2rXXrl2zKoqtG5eXl0dGRoaGhv74xz/etWuX0ctEUBy8kHFHxV6GaOtlaWo8LE1TSaEeCFhBAEKzAh6agoBdCECVdsGKoO5KoLy8XKFQTJo0KSQkZPz48YsWLdK7TATFwQvBC7nr1wPGDQKE4BiAVQACrkYAqnS1GUE+UidA7VBMTEzIdz/jx4/nXyaC4uCFXNQL6bl2qesQ+YOAaxKA0FxzXpCVOxMoKyujZ2z4DQIgYFcC0dHRxcXFOA7CC7moF3LnAyHGDgIgAAIgAAIgAAIgYBMC5eXlMTExoaGhISEh4eHhkydPnjZt2oEDB4w+PmSTHiUXRNAMSHOHTN6dILllhIRBAARAAARAAARAAARcigAzQjExMRMnTly3bl1lZaVLZegKyUjT8ghmDS/kCosKOYAACIAACIAACIAACDiTQHl5eURERGhoKC4EiU+DoKuQ5g54IfHpxl4QAAEQAAEQAAEQAAGZE6B/XwgXgkyZZmlaHsGsZeKF8CibKWsXdUDASgIQmpUA0RwEbE4AqrQ5UgR0QwIdHR2FhYWmPBEExeHdCYKmyrnKwSsOncsfvbsJAQjNTSYaw5QQAahSQpOFVGVAAIqDF4IXkoGQMQQQsJAAjgEWgkMzELAbAajSbmgRGASMEIDi4IXghYwIA5tAwE0I4BjgJhONYUqIAFQpoclCqjIgAMXBC8ELyUDIGAIIWEgAxwALwaEZCNiNAFRpN7QIDAJGCEBx8EIu6oXwKJsRvWITCNiaAIRma6KIBwLWEoAqrSWI9iBgDgEoDl7IRb2QOcsYdUEABEAABEAABEAABEAABCwhIGgGpLlDJu/UtmQm0QYEQAAEQAAEQAAEQAAEQMAcAtK0PIJZwwuZM/moCwIgAAIgAAIgAAIgAAJuTEDQVUhzB7yQG69lDB0EQAAEQAAEeATa2tp6enp4G4wXTaxmvDG2ggAISJyANC2PYNYy8UJ4lE3iskL60iAAoUljnpClOxGwrSpVKtV77703JD8Tqw0ZBxVAQHIEbKs4yQ2fJizoKqS5QyZeCK84lKickLa0CEBo0povZOsOBKxRZV1dXXFx8blz5wYGBgght27dSkhI2Lt3b2tra2dnJ6XX1NRUUlJy6dKlwcFBusWwWnt7e19fH92r1WpbW1t1Oh39qNcF3YjfICBdAtYoTrqj1stcmpZHMGt4Ib35xUcQAAFBAjgGCKLBDhBwEgHLVDk4OLhs2bKwsLCZM2cmJibOmjWLELJ161ZfX9/IyEiVSpWZmUkIyczMnDRpUnp6emRk5LRp027dumW02vjx4z/77DMKoLW1leM4jUZjtAsnQUK3IGAzApYpzmbdu0YgQVchzR3wQq6xrJAFCEiBAI4BUpgl5OheBCxT5fnz5/38/Hp7eymsb775hhb0bn5rbW2l2wcHB5cuXbplyxaj1Yx6IaEuaAT8BgGJErBMcRIdrFDa0rQ8glnDCwlNNLaDAAjoE8AxQJ8IPoOAswlYpsrW1lZvb++8vLy6ujr+CPS8kE6nO3XqVH5+fm5u7sKFC9VqNa2sV82oFxLqgt8dyiAgOQKWKU5ywxRPWNBVSHOHTLwQHmUTX7XYCwI2IQCh2QQjgoCADQlYrMqTJ0/Onj3b19c3KiqqqKiIpqRnchYsWDB16tSdO3cWFBSsXLkyJSXFaDWjXogQYrQLG44doUDA8QQsVpzjU7Vfj9K0PIJZy8QL2W++ERkEQAAEQAAE5Eqgv7+/oKDAy8uru7ubEJKcnHzw4EE62IaGBg8PD7qdELJ9+3bmhfjVCCGxsbEff/wxbXX27Fn6vBAjptcF244CCICARAkIugpp7oAXkug6RNogAAIgAAIgYCGBpqam2tpa2risrMzT05P+WaFFixZt3LiRvjKuubmZ47iLFy8SQurr64ODg5kX4lcjhCxZsmTNmjWEkP7+/uXLl1MvJNSFhRmjGQiAgMsQkKblEcwaXshlVhYSAQEQAAEQAAGHECgrKwsMDAwPD4+Pjw8MDNy/fz/ttqysTKFQeHt7p6amEkI2bdrk4+MTFxcXExOTk5PDvJBetfPnz4eGhoaFhYWEhLz00kvUCwl14ZDxoRMQAAE7EhB0FdLcAS9kx7WC0CAAAiAAAiDgdAIajaawsLCjo4OfiVarvXbtWm1t7Z07d/jb9cqdnZ21tbVarVZvu97Hu3fv1tXVsRvq6F4Tu9ALhY8gAAIuTkCalkcwa5l4ITzK5uKyQXryIAChyWMeMQo5ERBXZWVl5apVq+Li4srLy+U0aowFBJxFQFxxzsrKwf0Kugpp7pCJF8IrDh0sA3TnngQgNPecd4zalQkYVaVGoykoKEhISAgNDZ04cSKMkCvPIHKTFgGjipPWEKzPVpqWRzBreCHrlwQigIC7EMAxwF1mGuOUDgE9VVZWVj7++OMTJkwYP378hAkTpkyZAiMknclEphIgoKc4CWRshxQFXYU0d8AL2WGNICQIyJQAjgEynVgMS8IEqCrZhaCJEyeGfPczceJEGCEJzytSd1UCOA4SQqRpeQSzhhdyVbUhLxBwPQI4BrjenCAjdyewZ8+e4uLi6OhoaoHwGwRAwK4EcByEFxI0Vc49HOFRNufyR+9uQgBCc5OJxjAlRICqUqPR7Nu3T6lUsutCERERuC4koXlEqlIhgOMgvJCLeiGpSAh5ggAIgAAIgID9CFRWVq5cuXLChAnh3/3ADtkPNSKDgNsSEDQD0twhk3vk3HY5YuAgAAIgAAIgoEeAXSbCe+T0yOAjCICA9QSkaXkEs4YXsn5JIAIIgAAIgAAIuCKBysrK1atX4+8LueLcICcQkCwBQVchzR3wQpJdiUgcBEAABEAABEwgoNFoCgsLOzo6TKiLKiAAAiAwBAFpWh7BrGXihfAo2xDLFrtBwBYEIDRbUEQMELAlAajSljQRCwSGIgDF4d0JgqZqqMVj3/14xaF9+SI6CHxHAELDQgABVyMAVbrajCAfeROA4uCF4IXkrXGMDgTECOAYIEYH+0DAGQSgSmdQR5/uSwCKgxeCF3Jf/WPkIIBjANYACLgaAajS1WYE+cibABQHLwQvJG+NY3QgIEYAxwAxOtgHAs4gAFU6gzr6dF8CUBy8kIt6ITzK5r5fSxi5AwlAaA6Eja5AwCQCUKVJmFAJBGxEAIqDF3JRL2SjFY4wIAACIAACIAACIAACIAACggQEzYA0d8jkndqC04UdIAACIAACIAACIAACIAACNiIgTcsjmDW8kI3WBcKAAAiAAAiAAAiAAAiAgNwJCLoKae6AF5L7gsX4QAAEQAAEQAAEQAAEQMBGBKRpeQSzlokXwqNsNlreCAMCYgQgNDE62AcCziAAVTqDOvp0XwJQHN6dIGiqnCsLvOLQufzRu1E2YREAACAASURBVJsQgNDcZKIxTAkRgColNFlIVQYEoDh4IXghGQgZQwABCwngGGAhODQDAbsRgCrthhaBQcAIASgOXgheyIgwsAkE3IQAjgFuMtEYpoQIQJUSmiykKgMCUBy8ELyQDISMIYCAhQRwDLAQHJqBgN0IQJV2Q4vAIGCEABQHL+SiXgiPshnRKzaBgK0JQGi2Jop4IGAtAajSWoJoDwLmEIDi4IVc1AuZs4xRFwRAAARAAARAAARAAARAwBICgmZAmjtk8k5tS2YSbUAABEAABEAABEAABEAABMwhIE3LI5g1vJA5k4+6IAACIAACIAACIAACIODGBARdhTR3wAu58VrG0EEABEAABEAABEAABEDAHALStDyCWcvEC+FRNnPWMOqCgIUEIDQLwaEZCNiNAFRpN7QIDAJGCEBxeHeCoKkysl4cuAmvOHQgbHTlvgQgNPede4zcVQlAla46M8hLngSgOHgheCF5ahujAgFTCOAYYAol1AEBRxKAKh1JG32BABQHLwQvhO8BEHBfAjgGuO/cY+SuSgCqdNWZQV7yJADFwQvBC8lT2xgVCJhCAMcAUyihDgg4kgBU6Uja6AsEoDh4IRf1QniUDV9PIOAAAhCaAyCjCxAwiwBUaRYuVAYBKwlAcfBCLuqFrFzZaA4CIAACIAACIAACIAACIDAkAUEzIM0dMnmn9pDThgogAAIgAAIgAAIgAAIgAAJWEpCm5RHMGl7IyvWA5iAAAiAAAiAAAiAAAiDgLgQEXYU0d8ALucvCxThBAARAAARAAARAAARAwEoC0rQ8glnLxAvhUTYrlzWag4ApBCA0UyihDgg4kgBU6Uja6AsEoDi8O0HQVDlXHnjFoXP5o3c3IQChuclEY5gSIgBVSmiykKoMCEBx8ELwQjIQMoYAAhYSwDHAQnBoBgJ2IwBV2g0tAoOAEQJQHLwQvJARYWATCLgJATkdA9ra2np6etjELV68+MiRI+yjuYXBwcGPPvroqaeeWrNmTW5u7ldffWVuBLPqm5Kt3gDNio/KEiIgJ1VKCDtSdVsCUBy8ELyQ28ofAwcBIqdjgEqleu+999ik5uXlnTlzhn00q9Dd3f3Tn/40KCjoqaeeeu211zZs2BAUFHTs2DGzgphVOSUl5e233xZvojdA8crYK10CclKldGcBmbsPASgOXshFvRAeZXOfryGM1IkELBbazZs3e3t7NRrN6dOnOzs7CSFarfbs2bMVFRX8izOEkLq6uuLi4nPnzg0MDLCRGq2sF1Oj0dy6dYs1IYTcuHHjzp07hJCmpqaSkpJLly4NDg7SCrdu3UpISNi7d29rayvNp7Ozs7e3lzXv7++vrq7+8ssv+WnQHru6ukpLS5ubm1nldevWRUVFdXR0sC0ajebixYv0o0io27dvl5SUXL9+ndasqampqKjo6+tjcWiP//znP0+fPt3U1MS263khQz6GAxRhzsKiIEUCFqtSioNFziDgdAJQHLyQi3ohp2sDCYAACIgQUCqVmZmZYWFhSUlJH3300ZUrVyZPnqxQKGbMmBEUFHTixAlCyODg4LJly8LCwmbOnJmYmDhr1iwa0GhlQohezHfffTc2NpblcOnSJU9Pz/b29szMzEmTJqWnp0dGRk6bNo36pa1bt/r6+kZGRqpUqszMTEII311UVVVFREQolcr4+Pjo6OgLFy7QsEqlct26ddHR0SkpKSNGjNi3bx8h5Ntvv/X29j548CDrml8QCbVmzZro6Ojk5GRvb+9jx46tWbMmISFh4sSJCQkJzJUplcpf/OIXkZGRM2bM8PHxefXVV2lwfrZG+RgO0Gg1fqoogwAIgAAIgIApBATNgDR3yOSd2qbMHOqAAAg4i4BSqVQoFNSH6HS66dOnb9++nSZz/Pjx4ODg3t7e8+fP+/n5MRvwzTff0H98MlqZeiEWkxDS3d3t6+tbUVFBw27evHnu3LmEkNbWVrplcHBw6dKlW7ZsoR/1biFj7kKr1cbFxW3evJlWy8rKSkpK0ul0tMfExMTu7m5CyNGjR0eOHDk4OFhZWclxHPNLtBX9LR5q2rRp3377LSHkhRde8PHx2bt3LyGkr68vJiaGOSulUhkdHX379m1CSGlpqZeXV0NDA9+5CcEkhPAHKFKNnzDKIAACIAACIDAkAWlaHsGs4YWGnHFUAAEQsJaAUqlk1zQaGxs5jistLa3+/icgIOCLL75obW319vbOy8urq6tj/QlVps6ExaT1V61alZWVRW8GCwsL+/DDD6mbOnXqVH5+fm5u7sKFC9VqNa3Mtwp8d3HlyhWO4+iNc4SQhoYGjuNaWlpoj/n5+bS5RqPhOO769eslJSWsAkubFsRDFRQU0GolJSUeHh7s1rhVq1Y988wzdJdSqXzxxRdZWJVKRS9GMecmwoc/QJFqLDgKIAACIAACIGAKAUFXIc0d8EKmTDrqgAAIWEXg3vWNQ4cO0RClpaUeHh7qH/6Ul5cTQk6ePDl79mxfX9+oqKiioiJ6MUSoMj8mjXzq1KlRo0b19fWdOHFi9OjR/f39hJAFCxZMnTp1586dBQUFK1euTElJoZX5VoHvhUpKSoYPH85Ge+fOHY7jKisrqRdio6Db6+vr6+rqOI77/PPPWRNWMDFURUWFn58fa7V27doNGzbQj0ql8p133mG75s+f/7vf/Y6frQhM/gBFqrHgKIAACIAACICAKQSkaXkEs5aJF8KjbKasXdQBASsJWCw0vm9pamqiV1SEkunv7y8oKPDy8uru7hapzI9JQ+l0uoiIiKKiohUrVmRnZ9OrOh4eHvSutnuPJG3fvp15oeTkZHYrGt9dXL16leO4Gzdu0Jg1NTXsI79H5oUIITExMevXrzccjomhxL0Qu5mQEHL//fe/+eab/GxF+PAHKFLNMG1skRYBi1UprWEiWxBwEQJQHN6dIGiqnLtG8YpD5/JH725CwGKh8V0EISQ9PT0jI4M+LaPT6YqLi7VabVNTU21tLSVZVlbm6elJXzFntLLeVRrGf9u2bWlpaT4+PlVVVYSQ5uZmjuPoK93q6+uDg4OZF1q0aNHGjRvZm+XYXWc6nU6lUq1fv16n02m12sceeywtLY3G54+C74X+/Oc/e3l57dq1iz7s1N3dvWfPniNHjpgYStwLjR8/nr5o7tixYyNGjKAmjWUrBJMQojdAIYwMHQoSJWCxKiU6XqQNAs4lAMXBC8ELOVeD6B0EnEnAlGOARqMpLCzkv2Da0Le0tbXNnz/f399/ypQpo0aNSkxMHBgYKCsrCwwMDA8Pj4+PDwwM3L9/Px2q0cqGMWnl+vp6juPi4+MZpk2bNvn4+MTFxcXExOTk5DAvVFZWplAovL29U1NT+VdaCCGXL19OSEgYN27cmDFjVCrV1atXaTQhL3QvmWPHjk2ePHnYsGEhISHe3t7z58+nLzkwJZS4F8rOzp44cWJMTIyvr++7775LM+F7ISE+egMUqsZAoSBRAqaoUqJDQ9og4IIEoDh4IXghFxQmUgIBBxEQPwZUVlZmZWXFxcXRh3+GzKmnp6empoa+JI1W1mq1165dq62tpX8XiB/BsDJ/r3i5s7OztrZWq9WKV9Pb29bW1t7errdR/OP169evXLnyr3/9S6+aBaFoBOq++vr6Ll++TF+spxeZfTSRj4nVWFgUXJ+AuCpdP39kCALSIgDFwQvBC0lLs8gWBGxJwOgxQKPRHDhw4IEHHggNDZ04caKJRsiWack3Fv9KlHxHiZFZRcCoKq2KiMYgAALCBKA4eCEX9UJ4lE1YttgDAjYjoCe0ysrK9evXR0ZGTpkyJSwsbPLkyTBCNmP9XaCnnnrq9OnTto2JaDIjoKdKmY0OwwEBVyMAxcELuagXcjWpIB8QkDEBdiFoypQpERERISEhMEIynm4MDQRAAARAAAT4BATNgDR3yOSd2vwZQhkEQMB+BIqLiydNmhSCHxAAAZchYD+9IzIIgAAIGBKQpuURzBpeyHCKsQUEQECMQGdnZ05OTlRUFDsV/NnPfhYfH48b5MSoYR8IgAAIgAAIyIKAoKuQ5g54IVmsSgwCBJxB4OOPP37ooYdCQ0NDQkKmTZsGO+SMSUCfIAACIAACIOBQAtK0PIJZy8QL4VE2h4oAnbkrAaNCY5eJQkNDo6KicHXIXVcHxu0cAkZV6ZxU0CsIuAEBKA7vThA0Vc5d/3jFoXP5o3c3ISAutI8//njp0qWm/30hN4GGYYKAXQmIq9KuXSM4CLghASgOXgheyA2FjyGDwP9PwJRjgEajKSws7OjoADUQAAEHEDBFlQ5IA12AgJsQgOLgheCF3ETsGCYIGCGAY4ARKNgEAk4lAFU6FT86dzsCUBy8ELyQ28keAwYBRgDHAIYCBRBwEQJQpYtMBNJwEwJQHLyQi3ohPMrmJt9BGKZzCUBozuWP3kHAkABUacgEW0DAfgSgOHghF/VC9lv0iAwCIAACIAACIAACIAACIEAJCJoBae6QyTu1sTpBAARAAARAAARAAARAAATsTUCalkcwa3ghey8YxAcBEAABEAABEAABEAABmRAQdBXS3AEvJJN1iWGAAAiAAAiAAAiAAAiAgL0JSNPyCGYtEy+ER9nsve4RHwQIIRAalgEIuBoBqNLVZgT5yJsAFId3JwiaKucufbzi0Ln80bubEIDQ3GSiMUwJEYAqJTRZSFUGBKA4eCF4IbsLua2traenh3WzePHiI0eOsI9mFQ4fPpybm9vQ0MBa9fX1vfjii6+88grbMmShs7Nz4sSJt2/fFqlpk45E4mOXixDAMcBFJgJpgAAjAFUyFCiAgAMIQHHwQvBCdheaSqV67733WDd5eXlnzpxhH80qqNVqLy+vp59+mrU6cuSIl5eXn58f2zJkob29neO4r7/+WqSmTToSiY9dLkIAxwAXmQikAQKMAFTJUKAAAg4gAMXBC8nNC928ebO3t1ej0Zw+fbqzs5MQotVqz549W1FRwb84Qwipq6srLi4+d+7cwMAAE5vRyvyY9fX1t27dYvUJITdu3Lhz5w7d0tTUVFJScunSpcHBQbrl1q1bCQkJe/fubW1tpfl0dnb29vayCP39/dXV1V9++SU/DdpjV1dXaWlpc3Mzq6xWqxctWjRu3Li7d+/SjbNnz168eDHfCxnmQGtSJo2NjXpeyOiQTenILLZGaQul2t3d/Y9//KOxsXFwcLC1tZXBNJoqg4OCBQRwDLAAGpqAgF0JQJV2xYvgIKBHAIqDF3JRL2Txo2xKpTIzMzMsLCwpKemjjz66cuXK5MmTFQrFjBkzgoKCTpw4QQgZHBxctmxZWFjYzJkzExMTZ82aRYVhtDIhhB8zOzs7NjaWCenSpUuenp7t7e2EkMzMzEmTJqWnp0dGRk6bNo1apq1bt/r6+kZGRqpUqszMTEJISkrK22+/TSNUVVVFREQolcr4+Pjo6OgLFy7Q7Uqlct26ddHR0SkpKSNGjNi3bx/drlart23bplKpjh8/Tm3YyJEjDx8+zLyQ0RwIISUlJQEBASqVasqUKevXr2fXhYSGPGRHhBCjbQ3ZGm6hYxFK9fTp04GBgcnJyQqFwpRUaTT8toyAxUKzrDu0AgEQGJIAVDkkIlQAARsSgOLghVzUC1m8ypVKpUKhoD5Ep9NNnz59+/btNNrx48eDg4N7e3vPnz/v5+fHLs588803dB0YrUy9EIvZ3d3t6+tbUVFBY27evHnu3Lm03NraSguDg4NLly7dsmUL/ah3jxzzQlqtNi4ubvPmzbRaVlZWUlKSTqejPSYmJnZ3dxNCjh49OnLkSHpthFqUffv2LVmyhBCya9eu1atXf/LJJ8wLGc1hcHBQoVDk5ubSYa5YsYJ6ISE+hJAhOxJqa8jWcIsIrrt3706aNGn37t001dWrVw+ZKo2G3yAAAiAAAiAAAiAAAhYQEDQD0twhk3dqWzCRtIlSqXz11VdpubGxkeO40tLS6u9/AgICvvjii9bWVm9v77y8vLq6OtaRUGXqTFhMQsiqVauysrLoHWJhYWEffvghDaLT6U6dOpWfn5+bm7tw4UK1Wk23C3mhK1eucBxHb5wjhDQ0NHAc19LSQnvMz8+nzTUaDcdx169fZxbl9u3bI0eO/Prrr+Pi4oqLi/leyGgONTU1HMexWwQrKiqowRAZMvVCIh0JtTVka7hFBNdXX301bNiwf/3rX7ROVVXVkKnSmvgNAiAAAiAAAiAAAiBgAQFpWh7BrOGFlIcOHaLroLS01MPDQ/3Dn/LyckLIyZMnZ8+e7evrGxUVVVRURAgRqaxU/k9MQsipU6dGjRrV19d34sSJ0aNH9/f30+4WLFgwderUnTt3FhQUrFy5MiUlhW4X8kIlJSXDhw9nS/bOnTscx1VWVlIvxEZBt9fX1zMvRAjJyMhYuXJlZGSkTqfjeyGjOZSUlPj7+7OOmpqaqMEQGTL1QiIdibQ1ZGu4hRBiNNXS0lJ+qteuXRsyVTYuFEAABEAABEAABEAABMwlIOgqpLkDXuh/fAs96adXVIwui/7+/oKCAi8vr+7ubpHKel5Ip9NFREQUFRWtWLEiOzubRm5oaPDw8KB3td17JGn79u3MCyUnJx88eJAlwO6Ru3r1KsdxN27coLvo1Rv6kd+jUS/06aefchz33HPPEUKYFxLKob6+nuM49sqH0tJSajBEhsy8kNGO7j0cJdKWDofP1nCLUKo0bFtbG21y8uTJIVOlNfEbBEAABEAABEAABEDAAgLStDyCWcvEC1n8KBvfRRBC0tPTMzIyvv32W/r8SXFxsVarbWpqqq2tpWulrKzM09OT3j9mtLLeVRraatu2bWlpaT4+PlVVVXRLc3Mzx3EXL14khNTX1wcHBzMvtGjRoo0bN7KXoTEvdO+SjkqlWr9+vU6n02q1jz32WFpaGo3GH4VRL3TvhQQXL16kaTMvJJJDUlJSTk4OIaS/v3/OnDnUYAjx4V+AMtoRTdIoLkO2ly5dMqQtkurDDz+8fPnyW7duNTU1paamDpkqTQa/LSNgsdAs6w6tQAAEhiQAVQ6JCBVAwIYEoDh6hixoLCS4QyZeaMhXHGo0msLCwo6ODj098F0EIaStrW3+/Pn+/v5TpkwZNWpUYmLiwMBAWVlZYGBgeHh4fHx8YGDg/v37aRCjlY16IXqlJT4+nt/7pk2bfHx84uLiYmJicnJymBcqKytTKBTe3t6pqal675G7fPlyQkLCuHHjxowZo1Kprl69SgPyR2HUC/H7ZV6IECKUw7lz58aPHx8eHh4aGrpjxw5mMISGzK4LCXVkOlsh2kKptre3z5s3z9/fPzY29sCBA8OGDaOvLBdKlZ8hyuYSGFJo5gZEfRAAASsJQJVWAkRzEDCLABQHLyRo98xaSTavLLI0Kysrs7Oz4+Li6JM/pnTd09NTU1Nz+/ZtVlmr1V67dq22tpb9aSC2y7Ay2zVkobOzs7a2VqvVDlmTX6GtrY2+lZu/0eKyUA4DAwOXL1/u6uoyjGzNkA3bGrI13EJzEEqVZVhUVDRhwgT28Z7ZM+yOvxdlcwmICM3cUKgPAiBgEwJQpU0wIggImEgAioMXkowX0mg0Bw4c+OlPfzp+/PgJEya8+eabJq5yVJMWgePHj+/evfuTTz7Jz88PCgoqKCiQVv7SyhbHAGnNF7J1BwJQpTvMMsboOgSgOHghCXgheiEoNjZ28eLFDz74YEhIyK5du1xHRcjEtgTuXbzKyclZtmzZE0888fHHH9s2OKLpEcAxQA8IPoKA0wlAlU6fAiTgVgSgOHghF/VCZWVl7ELQgw8+uHz58vvvvz/kux8YIbf6ksJg7UoAz4zaFS+Cg4AFBKBKC6ChCQhYTACKgxdyUS9UXFwcGxsbEhLy4IMPhoaGUheE3yAAAjYnYPHxAw1BAARAAARAAARkQEDQDEhzh0zeI0cI0Wg0u3fvjo+PDw8PZ+d/kyZNMv2VCTJYnRgCCIAACIAACIAACIAACNiPgDQtj2DW8vFCbMorKiqWLFnCHBHsECODAgiAAAiAAAiAAAiAAAhYQ0DQVUhzhwy9EJ1ddpkoNDQ0PDwcV4esWfRoCwIgAAIgAAIgAAIgAAJ4XkjQ8Tl3cYg8ykYvE8XExMAOOXeO0LsMCIgITQajwxBAQIoEoEopzhpyli4BKA5eyEW90JCvONRoNIWFhR0dHdKVHzIHAacTGFJoTs8QCYCAuxGAKt1txjFe5xKA4uCFpOqFnKsc9A4C8iCAY4A85hGjkBMBqFJOs4mxuD4BKA5eCF7I9XWKDEHAXgRwDLAXWcQFAUsJQJWWkkM7ELCEABQHLwQvZIly0AYE5EEAxwB5zCNGIScCUKWcZhNjcX0CUBy8kIt6ITzK5vpfH8hQBgQgNBlMIoYgMwJQpcwmFMNxcQJQHLyQi3ohF1cO0gMBEAABEAABEAABEAABGRAQNAPS3CHbvy8kg6WGIYAACIAACIAACIAACICASxGQpuURzBpeyKVWF5IBARAAARAAARAAARAAAdclIOgqpLkDXsh1lxoyAwEQAAEQAAEQAAEQAAGXIiBNyyOYtUy8EB5lcymRIBm5EoDQ5DqzGJd0CUCV0p07ZC5FAlAc3p0gaKqcu6DxikPn8kfvbkIAQnOTicYwJUQAqpTQZCFVGRCA4uCF4IVkIGQMAQQsJIBjgIXg0AwE7EYAqrQbWgQGASMEoDh4IXghI8LAJhBwEwI4BrjJRGOYEiIAVUpospCqDAhAcfBC8EIyEDKGAAIWEsAxwEJwaAYCdiMAVdoNLQKDgBECUBy8kIt6ITzKZkSv2AQCtiYAodmaKOKBgLUEoEprCaI9CJhDAIqDF3JRL2TOMkZdEAABEAABEAABEAABEAABSwgImgFp7pDJO7UtmUm0AQEQAAEQAAEQAAEQAAEQMIeANC2PYNbwQuZMPuqCAAiAAAiAAAiAAAiAgBsTEHQV0twBL+TGaxlDBwEQAAEQAAEQAAEQAAFzCEjT8ghmLRMvhEfZzFnDqAsCFhKA0CwEh2YgYDcCUKXd0CIwCBghAMXh3QmCpsrIenHgJrzi0IGw0ZX7EoDQ3HfuMXJXJQBVuurMIC95EoDi4IXgheSpbYwKBEwhgGOAKZRQBwQcSQCqdCRt9AUCUBy8ELwQvgdAwH0J4BjgvnOPkbsqAajSVWcGecmTABQHLwQvJE9tY1QgYAoBHANMoYQ6IOBIAlClI2mjLxCA4uCFXNQL4VE2fD2BgAMIQGgOgIwuQMAsAlClWbhQGQSsJADFwQu5qBeycmWjOQiAgLsRaGtr6+npYaNevHjxkSNH2EezCocPH87l/Rw+fFi8OeuLFcTrs72dnZ0TJ068ffs224ICCIAACIAACDiYgKAZkOYOmbxT28GLAN2BAAhInYBKpXrvvffYKPLy8s6cOcM+mlVQq9Xx8fFrv/957bXXxJuzvlJSUt5++23xyvy97e3tHMd9/fXX/I0ogwAIgAAIgIAjCUjT8ghmDS/kyMWDvkDATQncvHmzt7dXo9GcPn26s7OTEKLVas+ePVtRUcG/OEMIqaurKy4uPnfu3MDAAINltLJeTI1Gc+vWLdaEEHLjxo07d+4QQpqamkpKSi5dujQ4OEgr3Lp1KyEhYe/eva2trTSfzs7O3t5e1ry/v7+6uvrLL7/kp0F77OrqKi0tbW5uZpXVavWGDRvYR37BsGtCCOtLzwsZHSYhhHJrbGyEF+KzRRkEQAAEQMApBARdhTR3wAs5ZRWhUxBwLwJKpTIzMzMsLCwpKemjjz66cuXK5MmTFQrFjBkzgoKCTpw4QQgZHBxctmxZWFjYzJkzExMTZ82aRRkZrUwI0Yv57rvvxsbGMqyXLl3y9PRsb2/PzMycNGlSenp6ZGTktGnTqF/aunWrr69vZGSkSqXKzMwkhPBtSVVVVUREhFKpjI+Pj46OvnDhAg2rVCrXrVsXHR2dkpIyYsSIffv20e1CXsho1/y++J0KDbOkpCQgIEClUk2ZMmX9+vW4LsSmGAUQAAEQAAGnEJCm5RHMWiZeCI+yOUUM6NTdCFgsNKVSqVAoqA/R6XTTp0/fvn07pXf8+PHg4ODe3t7z58/7+fmxizPffPMNfUDTaGXqhVhMQkh3d7evr29FRQUNu3nz5rlz5xJCWltb6ZbBwcGlS5du2bKFftS7R47ZEq1WGxcXt3nzZlotKysrKSlJp9PRHhMTE7u7uwkhR48eHTlyJL3QpHePXHV1NW0r1DXrixWEmAwODioUitzcXIpixYoV8EKULX4zAharkkVAAQRAwHQCUBzenSBoqkxfRvaoiVcc2oMqYoKAHgGLhaZUKl999VUarbGxkeO40tLS6u9/AgICvvjii9bWVm9v77y8vLq6OtavUGXqTFhMWn/VqlVZWVn0BrywsLAPP/yQfmWfOnUqPz8/Nzd34cKFarWaVhbyQleuXOE4jt44RwhpaGjgOK6lpYX2mJ+fT5trNBqO465fv04IUavVqampL3//w/LX6XRGu2YWiBWEhllTU8NxHLuNsKKiAl6I8sdvRsBiVbIIKIAACJhOAIqDF4IXMl0vqAkCciNg8TFAqVQeOnSI4igtLfXw8FD/8Ke8vJwQcvLkydmzZ/v6+kZFRRUVFRFCRCrzY9LIp06dGjVqVF9f34kTJ0aPHt3f308IWbBgwdSpU3fu3FlQULBy5cqUlBRaWcgLlZSUDB8+nM3cnTt3OI6rrKykXoiNgm6vr6+nXsjo80JCXTMLxApCwywpKfH392fJNDU1wQsxGihQAharEgBBAAQsIADFwQvBC1kgHDQBAZkQsPgYwPct9ISeXlExyqW/v7+goMDLy6u7u1ukMj8mjaPT6SIiIoqKilasWJGdnU2v6nh4eNC72u49krR9+3bmhZKTkw8ePMgSYLbk6tWrHMfduHGD7qJXZuhHfo9DeqGGhgahrllfrCA0zPr6eo7j2DshSktL4YXYif4cvQAAIABJREFUlKFACVisSgAEARCwgAAUBy8EL2SBcNAEBGRCwOJjAN9FEELS09MzMjK+/fZb+pVaXFys1Wqbmppqa2spqbKyMk9PT3pvmNHKeldpGN9t27alpaX5+PhUVVURQpqbmzmOu3jxIiGkvr4+ODiYeaFFixZt3LiRvVmO2RKdTqdSqdavX6/T6bRa7WOPPZaWlkbj80cxpBcS6Zr1xQpCTAghSUlJOTk5hJD+/v45c+bAC7G5RoESsFiVAAgCIGABASgOXshFvRAeZbNAz2gCAuYSMEVoGo2msLCwo6ODH5zvIgghbW1t8+fP9/f3nzJlyqhRoxITEwcGBsrKygIDA8PDw+Pj4wMDA/fv308jGK0s5IXohZT4+HjW+6ZNm3x8fOLi4mJiYnJycpgXKisrUygU3t7eqamp/He7EUIuX76ckJAwbty4MWPGqFSqq1ev0mj8UQzphQghQl0zC8QKQkwIIefOnRs/fnx4eHhoaOiOHTvghdjMokAJmKJKsAIBELAVASgOXshFvZCtljjigAAIWEygsrLyySefjIuLow//DBmnp6enpqbm9u3brKZWq7127VptbS39u0Bs+z1fYViZv1e83NnZWVtbq9Vqxavp7W1ra2tvb9fbaO5Hc7s2OsyBgYHLly93dXWZ2zvqgwAIgAAIgIDNCQiaAWnukMk7tW0+zQgIAiBgIgGNRnPgwIEHH3wwLCxs4sSJJhohE4OjGgiAAAiAAAiAgEsRkKblEcwaXsilVheSAQEpEaAXgiZNmpSQkBAaGhoTEwMjJKX5Q64gAAIgAAIgYD4BQVchzR3wQuYvAbQAAfcmwC4E0YdwQkJCYITce0Vg9CAAAiAAAm5EQJqWRzBrmXghPMrmRhLEUJ1HoKysrLi4OCoqKgQ/IAACLkPAeV8J6BkE3I4ATjjx7gRBU+VcNeAVh87lj97dhAAVWltb2xNPPBEZGclOBefMmRMfH48b5NxkGWCYLkUAhz+Xmg4kI3sCUBy8ELyQ7GWOAYKAIAG9Y8AHH3zwk5/8hDqin/zkJ7BDguCwAwTsRkBPlXbrB4FBAAT+mwAUBy8EL4TvAhBwXwJGjwHsMlFoaGhUVBSuDrnv+sDInUHAqCqdkQj6BAG3IADFwQvBC7mF1DFIEDBKQPwY8MEHHyxZssT0vy9ktAtsBAEQMIuAuCrNCoXKIAACQxKA4uCFXNQL4VG2IdWLCiBgPQFThKbRaAoLCzs6OqzvDhFAAASGJGCKKocMggogAAImEoDi4IVc1AuZuIJRDQRAAARAAARAAARAAARAwGICgmZAmjtk8k5ti6cTDUEABEAABEAABEAABEAABEwkIE3LI5g1vJCJ845qIAACIAACIAACIAACIODuBARdhTR3wAu5+4LG+EEABEAABEAABEAABEDARALStDyCWcvEC+FRNhOXL6qBgDUEIDRr6KEtCNiDAFRpD6qICQJCBKA4vDtB0FQJLRrHbMcrDh3DGb24OQEIzc0XAIbvggSgShecFKQkYwJQHLwQvJCMBY6hgcAQBHAMGAIQdoOAwwlAlQ5Hjg7dmgAUBy8EL+TWXwEYvJsTwDHAzRcAhu+CBKBKF5wUpCRjAlAcvBC8kIwFjqGBwBAEcAwYAhB2g4DDCUCVDkeODt2aABQHL+SiXkhOj7K1tbX19PSwb5rFixcfOXKEfTSrcPjw4Vzez+HDh0Wa8zvil0WasF2dnZ0TJ068ffs2IYR22tDQwPb29fW9+OKLr7zyCtuCgkQJyEloEp0CpA0CegSgSj0g+AgCdiUAxcELuagXsuu6d3BwlUr13nvvsU7z8vLOnDnDPppVUKvV8fHxa7//ee2110Sa8ztKSUl5++23RSrr7Wpvb+c47uuvvyaEqNVqLy+vp59+mtU5cuSIl5eXn58f24ICCIAACIAACIAACICAFAkImgFp7pDJO7UtXkk3b97s7e3VaDSnT5/u7OwkhGi12rNnz1ZUVPAvzhBC6urqiouLz507NzAwwLozWpkfs76+/tatW6w+IeTGjRt37tyhW5qamkpKSi5dujQ4OEi33Lp1KyEhYe/eva2trTSfzs7O3t5eFqG/v7+6uvrLL7/kp0F77OrqKi0tbW5uZpXVavWGDRvYR1Yw7JcQwu9IzwsZHSYhhHJrbGzU80KLFi0aN27c3bt3aY+zZ89evHgx3wsJBTQK2ehGo0MghHR3d//jH/9obGwcHBxsbW1lYIV6ZExQAAEQAAEQAAEQAAEQGJKANC2PYNbu7oWUSmVmZmZYWFhSUtJHH3105cqVyZMnKxSKGTNmBAUFnThxghAyODi4bNmysLCwmTNnJiYmzpo1i64So5UJIfyY2dnZsbGxbFVdunTJ09Ozvb2dEJKZmTlp0qT09PTIyMhp06ZRy7R161ZfX9/IyEiVSpWZmUkI4duSqqqqiIgIpVIZHx8fHR194cIFGlmpVK5bty46OjolJWXEiBH79u2j2416IaP96nXE71RomCUlJQEBASqVasqUKevXr+dfF9q2bZtKpTp+/Dj1fiNHjjx8+DDzQkYDGoVsdKMQOkLI6dOnAwMDk5OTFQoFPyWjPbJJQQEEQAAEQAAEQAAEQMBEAoKuQpo74IWUCoWC+hCdTjd9+vTt27fTpXD8+PHg4ODe3t7z58/7+fmxizPffPMNvVfSaGXqhVjM7u5uX1/fiooKGnPz5s1z586l5dbWVloYHBxcunTpli1b6Ee9e+SYLdFqtXFxcZs3b6bVsrKykpKSdDod7TExMbG7u5sQcvTo0ZEjR9LrIXr3yFVXVxNChPplHfF9kRCTwcFBhUKRm5tLUaxYsULPC+3bt2/JkiWEkF27dq1evfqTTz6hXkgooFHIRjcKDeHu3buTJk3avXs3TWn16tU0JaEeKUb8BgEQAAEQAAEQAAEQMJ2ANC2PYNYy8UIWP8qmVCpfffVVOv2NjY0cx5WWllZ//xMQEPDFF1+0trZ6e3vn5eXV1dWxhSJUmToTFpMQsmrVqqysLHr3XVhY2IcffkiD6HS6U6dO5efn5+bmLly4UK1W0+1CXujKlSscx9Eb5wghDQ0NHMe1tLTQHvPz82lzjUbDcdz169fpozupqakvf/9D8xfq16gXEhpmTU0Nx3HsNsKKigo9L3T79u2RI0d+/fXXcXFxxcXFzAsJBTQK2ehGanUM0X311VfDhg3717/+RTlUVVXRlIR6pNXw2ywCFgvNrF5QGQRAwHQCUKXprFATBKwnAMXR0zBBYyHBHTLxQha/4lCpVB46dIhqo7S01MPDQ/3Dn/LyckLIyZMnZ8+e7evrGxUVVVRURAgRqcyPSQg5derUqFGj+vr6Tpw4MXr06P7+ftrdggULpk6dunPnzoKCgpUrV6akpNDtQl6opKRk+PDhTMZ37tzhOK6yspJ6ITYKur2+vp56IcPnhYT6NeqFhIZZUlLi7+/PkmlqatLzQoSQjIyMlStXRkZG6nQ65oWEAhqFLLTR6BBKS0v5KV27do2mJNIjyx8FEwlYLDQT46MaCICAuQSgSnOJoT4IWEMAioMXErR71iws69tavDT5voWe0NMrKkZT6u/vLygo8PLy6u7uFqnMj0lXTERERFFR0YoVK7Kzs2nkhoYGDw8PelfbvUeStm/fzrxQcnLywYMHWQLMoly9epXjuBs3btBd9MoM/cjvUdwLifTLOuLfIyc0zPr6eo7j2GshSktLDb3Qp59+ynHcc889RwhhXkgoIBsvH7LRjUJDoJHb2tpoq5MnT9KUhuyR9YLCkAQsFtqQkVEBBEDAMgJQpWXc0AoELCMAxcELydkLEULS09MzMjK+/fZbOtPFxcVarbapqam2tpZqpqyszNPTk94bZrSy3lUa2mrbtm1paWk+Pj5VVVV0S3NzM8dxFy9eJITU19cHBwczL7Ro0aKNGzeyF6Axi3Lv6opKpVq/fr1Op9NqtY899lhaWhqNZroXEumXdcT3QkJMCCFJSUk5OTmEkP7+/jlz5hh6oXtvPrh48SJlxbyQUECjkI1uFBnCww8/vHz58lu3bjU1NaWmprKUhGaK0sNv0wngGGA6K9QEAccQgCodwxm9gAAlAMXBC0nVC2k0msLCwo6ODj0x810EIaStrW3+/Pn+/v5TpkwZNWpUYmLiwMBAWVlZYGBgeHh4fHx8YGDg/v37aRCjlY16IXoVJT4+nt/7pk2bfHx84uLiYmJicnJymBcqKytTKBTe3t6pqal6tuTy5csJCQnjxo0bM2aMSqW6evUqDcgfhfh1IUKIUL9CXkhomOfOnRs/fnx4eHhoaOiOHTuY8VCr1du2beOPlH9dyCzIQuSFhtDe3j5v3jx/f//Y2NgDBw4MGzaMvr5caAh6SeLjkARwDBgSESqAgIMJQJUOBo7u3JwAFAcv5KJeSORRtsrKyuzs7Li4OPrkjyka7unpqampuX37Nqus1WqvXbtWW1vL/jQQ22VYme0astDZ2VlbW6vVaoesya/Q1tZG38rN32hW2YJ+jQ5zYGDg8uXLXV1dZvVOKxsGNArZ6Eb615DE0RUVFU2YMIGfmGGP/L0om0JARGimNEcdEAABmxOAKm2OFAFBQIQAFAcv5KJeyHDVajSaAwcO/PSnPx0/fnxERAS7mGNYE1tkQ+D48eO7d+/+5JNP8vPzg4KCCgoKZDM0DAQEQAAEQAAEQAAEXIGAoBmQ5g6ZvEeOvzLohaDY2NiMjIyHH36Y3sHFr4CyXAncu0iVk5OzbNmyJ5544uOPP5brMDEuEAABEAABEAABEHAWAWlaHsGs5eOF2IWg1NTUX/3qV9OnTw/57mfHjh3OWivoFwRAAARAAARAAARAAATkREDQVUhzh0y8UHFxcWxsbEhISHp6ekREBHVB+A0CIGBzAnL6NsdYQAAEQAAEQAAEzCUgTcsjmLVMvFBZWZlGo3nhhRcUCkVYWBg7/4uKijL9lQnmLgXUBwF3I4BnRt1txjFe1ycAVbr+HCFDORGA4vDuBEFT5dyFzn/F4ZkzZ+bNmzd+/HjqiGCHnDs16F1OBPhCk9O4MBYQkC4BqFK6c4fMpUgAioMXkoAXotJil4lCQkImTJiAq0NS/MZBzq5GAMcAV5sR5AMCUCXWAAg4kgAUBy8kGS/EhEEvE8XExMAOMSYogIBlBHAMsIwbWoGA/QhAlfZji8ggYEgAioMXkp4XoutYo9EUFhZ2dHQYLmtsAQEQMJEAjgEmgkI1EHAYAajSYajREQgQQqA4eCEX9UJ4lA3fUCDgAAIQmgMgowsQMIsAVGkWLlQGASsJQHHwQi7qhaxc2WgOAiAAAiAAAiAAAiAAAiAwJAFBMyDNHTJ5p/aQ04YKIAACIAACIAACIAACIAACVhKQpuURzBpeyMr1gOYgAAIgAAIgAAIgAAIg4C4EBF2FNHfAC7nLwsU4QQAEQAAEQAAEQAAEQMBKAtK0PIJZy8QL4VE2K5c1moOAKQQgNFMooQ4IOJIAVOlI2ugLBKA4vDtB0FQ5Vx54xaFz+aN3NyEAobnJRGOYEiIAVUpospCqDAhAcfBC8EIyEDKGAAIWEsAxwEJwaAYCdiMAVdoNLQKDgBECUBy8ELyQEWFgEwi4CQEcA9xkojFMCRGAKiU0WUhVBgSgOHgheCEZCBlDAAELCeAYYCE4NAMBuxGAKu2GFoFBwAgBKA5eyEW9EB5lM6JXbAIBWxOA0GxNFPFAwFoCUKW1BNEeBMwhAMXBC9nLCxUVFeXl5e1x3s+f/vQnc7SAuiBgNoGBgYG33nrLeWscPf83gbfeemtgYMDsyUMDuRBw+rEGOjSFAHQqFcFBUKasZ6nXMTxDFjQD0tzhEu/ULin5vLDwaEtLlxP/++Mfj5aWfi6Vbx/kKTkC/f39zz675cKFeicucnTd0tJ1/nzdM88829/fL7klhIStJ3DmzJmioo+uX/8GWnBxAhcu1D/77Bbo1Po1b9cIZ86c+Y//gKCcee7qGCEXFh4tKfnBGbI0LY9g1i7hhZ577qXmZo1jZlSol+ZmzfPPv2TXbw0Ed2cCBw4cgBESUp+Dt1dX1x04cMCdV6Pbjj0vb5fTjzUOXu3S7e7ChXro1MWlCkFJV19mZd7crNm58wdnyIKuQpo7XMIL7djxolmzYqfKzz33g5l28e8gpCctArt377bTukVYCwi88sqr0lo/yNYmBF58cZcFqwVNnEVg9+7dNpl3BLETgZdegqDkf1GIyn/Hjh+cIUvT8ghm7RJeaPt2eCE7fVMhrKsQ2L17j7POJ9CvIQF4IVcRhmPzyM192XAxYIvLEti9e49jFwh6M48A/nHBZbVj88R27HiRvzgEXYU0d8AL/Y+nx3Uh/kJH2bYE4IVs/tVsTUB4Idsub6lEgxeyRjWObwsv5OLKghdyvCic1SO8kEkuzxrF4rqQNfTQVhIE4IWc9Q1utF94IUmoxuZJwgsZlYPLboQXsrkEbBsQXshltWPzxOCF4IVs++2BaO5IAF7I5l/N1gSEF3JHERICL2SNahzfFl7IxXUKL+R4UTirR3gheCEX/zpCehIgAC/krG9wo/3CC0lAM3ZIEV7IqBxcdiO8kB1EYMuQ8EIuqx2bJwYvBC9ky+8OxHJPAvBCNv9qtiYgvJB7yhBeyBrVOL4tvJCL6xReyPGicFaP8EJO80KnT/9XRcVF/sRfuHDtL385bac/EIF3J7j4166k0xPxQuXlF/7yl9N/+cvpv/71H19+2cBf8C5efu65l1977U1rkuSP/eLFJmtCmdUWXkjSarI4eSEvxF+H0tJgS0uX9TKsr+84cuTj119/6/33iyoqvjJLSnatDC9k8VJ3TEMhL+TOguKPvaLiKzudrz777HNvvHHQrurTCw4v5DQvNHXqtBUrVvPn4/XX3+I4rr6+g7/RVmV4Icd8e7pnLyJe6NFHHx8+fHhg4OiRI3/Ecdy0adP1/gnAVivc+ji//OWvt2zZyeIsXLhs3bps9tGCAhu7v/9IjuNmzPjZ2bO1FsQxtwm8kHvKUMgLsXUoOQ22tHRZKcNjx/4WHBwyZkzQtGnTIyOjPDw8+Bo3V1m2rQ8v5OI6FfJC7iwoNvaAgFEeHh4jR/5o5cpfVVfXmyINvSOsSJPU1IeefDJHpILNd8ELwQu5+NcR0pMAAXEvNH16Kv3m+vzzc+HhEenpapt/kdkk4L3E/tf/yrJJKBrk0UcfZ2P/+9+/GDcuZN68xTaMLxQKXkgCmrFDiiJeiK1Dd9NgVFTMvHmLGxu/pmL54otLJ06cERKOg7fDC9lBBLYMKeKF3FZQ/IPa1as3Cws/io1VhIdHnD/fOKR8TD/CwguZ5ExMruTSf19I/LrQZ59VLF6cER+fkJSUvHz5L/j/nPz++0Xp6er4+PvnzVv86aeldP399re/Kyh4+8UX96hUKY89tspwUeK6kC2/IxHrhwRM9EItLV1PPrlh9Ogx/PVpdD1buf7fe+/ImjXr+b28+urvN27c0tLS9ac//fXRRx9PTFSpVClPPPF/f/VVM6320kv/Ozg4JCoqZsGCpQsWLK2quvK73724Z88bLMiePW88+OCMH//4/1q6dMXnn59j23/729/9/vfv7Nr1ukr1QErKT/hN+IeNlpau9eufCgoKFsmhpaWrqen2li07ExKmJidPf+21N3Nzd+/a9TrryygrtpcV4IV+uDzd5ZMpXsh0Dba0dAnJUGgd8g9DaWkPC2lQSAKGGmxp6TJFhkIarK/v4DguP/8Ak4ZewfqBtLR0GQ3CR2H0iNzS0gUv5OLKNMULuZWgWlq69A5qLS1dZ8/W+vr6/uY3T1NxmX6EFap575vnOy+0YefOXVOnTlOpUthRVaSJuV9Wel8FuC5kkrGyRrFCf19IxAtdvXpzzJig1avXHjnyyfvv/8eGDZtLS8/Smduz5w0/P78tW3Z+8MHxp59+dsSIESdPltGlExISOmvW3P/zf957//3/0Jvm7+66fsmaUaAtCIgQMN0LzZ27KDp6MlufRtez9eu/pOT/5Tjub38rpx01Nd0ODQ177rmXW1q6duzI+93vXvzjH4+9887hadOmP/DAg7TOX/5y+v77E9PT1W+++Yc33/zD5cvXZ82a+6tfraN7n39+14gRI5577uV///ejM2fOGT16zIUL1+iu1NSHwsLGL1y47N13P3jmmR0eHh4ffHCc7tI7bCxf/ovIyCiRHFpaup5++tkf/Shg167X//CHD3/2s58HBQWzO2mNsqId6f2GFxJZqzLeZaIXMkWDLS1dQjIUWYepqQ+xw9CuXflCGhSSgKEGW1q6TJGhiAYnTJiYmKg6fvzUtWu39GRik4EIBeGjMHpEhhdyfSWa6IXcSlB6BzWqqQULlsbH30/Lph9hhWrSE9qgoOC5cxf9+78f3bJl5/DhXgUFbwt9b1j2ZaX3bQAv5Ipe6PPPz3Ec91//VaM3W42N/xwzZuzzz7/CtmdkrFy06FG6dCZPVog8x4brQq7/zSvdDMW9UERE5LZtuc8++9y8eYu9vLz373+fLmCh9WyT9a9SPcCe9iks/Gj4cK/q6qtMOLTw5ZcNHMedPv1f9KPeFXx2EtbY+M+AgFHbtuWytMePn7Bhw2b6MTX1ofvvT2TSe+ihR5iDevTRx+Pj7//Tn/5aVPSXzZu3Dx8+PCfnGdqK/ebncPXqTX9//1278uneurqO0aPHUC8kxIrF4RfghaQrJWsyF/FC5mqwpaXLqAzF12Fq6kP8w5ApGmxp6eJLQE+DfC8kIkMRDf75z59NnDiJ4zhfX9+HHnqEnlG1tHTZZCAiQfRQ8OXJyrguZM1qd0BbES/ktoIy6oWyszcGBo5mC5sV+NK+95ViqG6hmqmpD0VERDY13aYVsrL+LTo6llWmBX5wC76s9KLBC7miF2ps/OeUKXHh4RFZWf92+PCf2b3On31WwXHcqlX/6+mnn83JeWbDhs0//Wl6XFw89UKrV6/Vm13+R3ghB3x1um0X4l4oMHD0rFlzH3roEX9//5kz5wy5nm2y/l9++bWxY8c1Nv7z3snW4sUZs2bNpXKorr6anb3xJz9JUyh+HBurGDZs2B/+8CHdpfdNzbwQ/Z797LMKJqjHHlv1yCOz6cfU1If4TxmtXr12zpwFdNejjz7u5eUdEhIaHh6RnDz9+ed30XyEcjh9+r84jmMXgVtauh5+eCb1QiLaZ1mxAryQeypRxAuZq0HqFgwPQ+LrMDX1If5hSEiDLS1dQhLQ0yDfC4nIUESDLS1dzc2aTz4pfu65l1NTH+I4bv36p+4dMW0yEJEgeiiYNvkFeCEX16mIF3JbQRn1QllZ/zZ27Di6toWkbeiFRGqmpj70+OO/ZGL54x+PDRs2rK6uQ6iJ0XMGEXmyyKwAL+Q0L3TvpVILFixlM9HS0vXii3u8vLypFa6pufHyy6+p1fP8/UdGRET+4x9ftrR0ffzx3zmOy8r6t2effY7999JL/5t6IfHXbsALufjXrqTTE/dC7DHTioqvRo8e89RT/w9d9iLr2fr1f+lSy333jXj//aLLl1tHjBjx9tt/pJ0qlUnp6bMKCz/629/Ki4srhw/3Yrv0zsOYF/rrX//BcRzVIA2SmfnET/6/9u42RqrqjAP4vrHArloErQ1U0JASY0xqxAZlC6Q0SqpRgzaEaAzdNBhMm/aDMWgT0SrvJLbaLyvxCxCJMSDVaGyX8iIQwCqIGJaX8iKjaDRa9it8ocSb3E5mZy6zuzNnzzA/Q8zdnTv3PPM757l3/js7s1OnJdsF7/KcN29+mruKXjZyud5SNXR3725oaNi9+2By5Fyu9667fpVkoQyrdOd0Qxaq6W4acPEZWWgAPZjL9fZtw+x1WNALpXowowUKejA/C2W0YcG4+T2YNkWy0dm5oKVl2MmT31bkgWQcpKCkgjKSL2WhAS/1MHfMyEJ121BFL2ozZvxy8uQpyaoudXXrm4Uy9uzomNHZ+f/PMdq06Z8NDQ2ffHIy4y79PVkVtKQsNGRZ6JFHOidNuil/PubNm9/3dcDDh89MnDhpwYI/5HK9Bw+eampq6upam3+vZPuSZ15ZKMzZsz5HKTMLJYF/+PARH354JHs9pyt8MOv//vsfuueeB1aseHnMmGuSF6P27Tva0NCwfftHyfGTtxWlWejuu+/Jf7d3moV6er5obGx89dX1aVVTpkxNf2pV0Hr5z8OKXjYyajhy5MuWlpaurjXJQKdOfTdu3I+TLJTR+2lV6YYsVJ9tWE4WGkAPJqEouQxlr8OCXkg+EbugB5M3W5dqw4IezM9CGW1YMG5+D6ZNkWysWPFyY2Pj4cNnKvJAMg5SUFJBGcmXslDkfVpOFqq3hup7UXv33e3Nzc3J23Ezrm5JL6dX2Ow9OzpmXHyxN+2a5cv/euWVV2XfJd05fc6Q0Z7pzumGLDRkWeidd7Y1NjY+/fSfjx//+rPP/rtu3cb29vZFi5bmcr179ny6bt3G5AWigwdPTZhwY/onER58cO748Tckn5eQy/Vu3frB+vV/97pQ5KfUy7688rPQiRPfjB07Lj0hFl3PlVr/a9duaG0dfvE9nenvsB09+lVLy7ClS1/M5Xp7ej6fPn1mY2NjmoU6OxdMnjxl//5jhw+fOX36bJqFLv5KzwMP/Prmm29JPs7xpZdWNzY2vv32luQ0WvCkJ/95WN/LRi7Xm13Dww//ZsKEGzdt6t6791Bn54K2trYkC12MjkWt0lN5/oYsdNl3XNEHWGYWKqcHMy5DGeuwoBdyud6+PZjdAgU9mJ+FMtqwYNy0B0+c+Gb27DmbNnUnf7Vvy5a9kybddNttP0uaZfAPJKMrC0rKb890WxYquozj+WaZWah+Gir5HLlbb528Y8f+7ds/evPNfzzxxJ+uuOLKO+/8+fHjX2e39sXfVs3v7u9/8FfyWtzRMaO5uTm5NO/de2jChBvnz/9dxqWz1HOGjB5P2zC0GpXjAAAK+klEQVTZkIWGLAvlcr1Ll76Y/L2q1tbhLS3DHn30t8lPr7u7d19zzQ+HDWsdO3Zca+vwWbPuPXr0q2TCjhz5cs6cR1paWkaNurqtrW3UqKuXLfuLLBTP2bM+Kyk/CyXLvrV1ePLRIEXXc6XW/6lT31133Y8aGhry/6LI88+vHDas9dprr2tvb3/mmSVtbW1pFtq168Dtt98xcuTI5AMV8rPQxx//5447Opqamq666gcjR45MfgaWtGTBk570eVjRjx9N7pJRw+HDZx56aG57e/uoUVc//vgfZ82697HHfp/d+8mt+f+XheqzDcvMQuX0YC7XW6oNi/ZssvwKeiGX6y3ag7lcb6kWKOjBgixUqg0Lxk178OTJb2fOvHvEiBFNTU1JX0+b9ov0d1Ar8kBKHaSgpPz2TLdlocj7tMwsVD8NlVzUGr7/r7m5efToMVOnTlu69MXkfbDJwi7V2rlcb0F3Z+zZ0TFj7txHb7nlp6NHj2lqapo6dVpPz+cZ540BnKzSNkw2ZKGhzELJ+1O3bft3d/fuI0e+LJibDz7o6e7enX50b/6tPT1fdHfv3rPn076fE5q/W/6235GL/LRb0+VlZKH8RVhqu+h6ruz6zx/60KHc5s17knNr/vcvuZ2UlP5g4pL7Z+xQTg2nTn13/fUTklex0kMVtUpvTTZkoZrupgEXXyoLFSyPol+WWlel2rDU/kUPXvSb5bRA0Tv2tw1PnPhm164DW7bsLdryg38g37/I3O8rss/UHvA6D3bHUlmo6LIs+GapdXUZNFTBI+37Zfmtfck9339/X/47dXO53oy7DMZWFhriLNR3GVXpO7JQsBNoHQ40yCxUpTVfi4d9770dK1f+bfPmPW+99a/Zs+eMHj3m0KFcfx+ILFSHPXjhwoXBZKH+rjH7D17A60KR9+lgstDgl4cjhBSQhWShyE9HyqsBAVmoUmftLVv2Tp8+c/z4GyZO/Ml99z24Y8f+ARxZFqqBnqlCibLQAJplCO8iC1WhCSp5SFloCLsj8NCykCxUyXOHY9WngCwU+MSdPZwsVJ9tKAtl90Vst8pCkfepLBRby1SvHllIFor8dKS8GhCQhap3jh7AkWWhGuiZKpQoCw2gWYbwLrJQFZqgkoeUhYawOwIPLQvJQpU8dzhWfQrIQoFP3NnDyUL12YayUHZfxHarLBR5n8pCsbVM9eqRhWShyE9HyqsBAVmoeufoARxZFqqBnqlCibLQAJplCO8iC1WhCSp5SFloCLsj8NCykCxUyXOHY9WnwKpVqwKfuQyXISAL1WcbLl68LGNVuCk2gVWrVtXnQq2VRy0LxdYy1atHFqp6Flq0aPHp02erN4XlHPn06bPPPbekVk5A6qw5gdWrVx84cKycpWifagvs23f0lVdeqbklpODBCyxevGzIrzXVXt6XzfEPHDi2evXqwU+6I1RPYMmS5Rrqsum4jAdy+vTZZ59dnL+QygoGtbNTQ6VKzTfq7/bWrdvXrHkjYxoC3LR27Rvbtr3f38rtT6BMgXPnzi1c+NT+/eJQb4B2zhhi376jTz658Ny5c2VOnN0uJ4EdO3a+9tqGjOXhpkgE9u8/tnDhU/o08u7buXPn+vUaaogvagF6ds2aN7Zu3Z6/GiuVHSI5ThRZ6MKFCxs2bFi+fOVQ/XvhhSWvv/56/jTbJlBxgfPnz3d1dQ3VIjduItDV1XX+/PmKT64D1orAxo0bV6wYsmuNNixTQJ/WVEOtKnNa7VaLAkWfIUeSYSpVRixZqFbaXp0ECBAgQIAAAQIE6lagUiEkkuPIQnW7kj1wAgQIECBAgAABAv0TiCTDVKoMWah/029vAgQIECBAgAABAnUrUKkQEslxZKG6XckeOAECBAgQIECAAIH+CUSSYSpVRsWyUKUKchwCBAgQIECAAAECBAgEEJCFAiAbggABAgQIECBAgACB6ARkoeimREEECBAgQIAAAQIECAQQkIUCIBuCAAECBAgQIECAAIHoBGSh6KZEQQQIECBAgAABAgQIBBCQhQIgG4IAAQIECBAgQIAAgegEZKHopkRBBAgQIECAAAECBAgEEJCFAiAbggABAgQIECBAgACB6ARkoeimREEECBAgQIAAAQIECAQQkIUCIBuCAAECBAgQIECAAIHoBGSh6KZEQQQIECBAgAABAgQIBBCQhQIgG4IAAQIECBAgQIAAgegEZKHopkRBBAgQIECAAAECBAgEEJCFAiAbggABAgQIECBAgACB6ARkoeimREEECBAgQIAAAQIECAQQkIUCIBuCAAECBAgQIECAAIHoBGSh6KZEQQQIECBAgAABAgQIBBCQhQIgG4IAAQIECBAgQIAAgegEZKHopkRBBAgQIECAAAECBAgEEJCFAiAbggABAgQIECBAgACB6ARkoeimREEECBAgQIAAAQIECAQQkIUCIBuCAAECBAgQIECAAIHoBGSh6KZEQQQIECBAgAABAgQIBBCQhQIgG4IAAQIECBAgQIAAgegEZKHopkRBBAgQIECAAAECBAgEEJCFAiAbggABAgQIECBAgACB6ARkoeimREEECBAgQIAAAQIECAQQkIUCIBuCAAECBAgQIECAAIHoBGSh6KZEQQQIECBAgAABAgQIBBCQhQIgG4IAAQIECBAgQIAAgegEZKHopkRBBAgQIECAAAECBAgEEJCFAiAbggABAgQIECBAgACB6ARkoeimREEECBAgQIAAAQIECAQQkIUCIBuCAAECBAgQIECAAIHoBGSh6KZEQQQIECBAgAABAgQIBBCQhQIgG4IAAQIECBAgQIAAgegEZKHopkRBBAgQIECAAAECBAgEEJCFAiAbggABAgQIECBAgACB6ARkoeimREEECBAgQIAAAQIECAQQkIUCIBuCAAECBAgQIECAAIHoBGSh6KZEQQQIECBAgAABAgQIBBCQhQIgG4IAAQIECBAgQIAAgegEZKHopkRBBAgQIECAAAECBAgEEJCFAiAbggABAgQIECBAgACB6ARkoeimREEECBAgQIAAAQIECAQQkIUCIBuCAAECBAgQIECAAIHoBGSh6KZEQQQIECBAgAABAgQIBBCQhQIgG4IAAQIECBAgQIAAgegEZKHopkRBBAgQIECAAAECBAgEEJCFAiAbggABAgQIECBAgACB6ARkoeimREEECBAgQIAAAQIECAQQkIUCIBuCAAECBAgQIECAAIHoBGSh6KZEQQQIECBAgAABAgQIBBCQhQIgG4IAAQIECBAgQIAAgegEZKHopkRBBAgQIECAAAECBAgEEJCFAiAbggABAgQIECBAgACB6ARkoeimREEECBAgQIAAAQIECAQQkIUCIBuCAAECBAgQIECAAIHoBGSh6KZEQQQIECBAgAABAgQIBBCQhQIgG4IAAQIECBAgQIAAgegEZKHopkRBBAgQIECAAAECBAgEEJCFAiAbggABAgQIECBAgACB6ARkoeimREEECBAgQIAAAQIECAQQkIUCIBuCAAECBAgQIECAAIHoBGSh6KZEQQQIECBAgAABAgQIBBCQhQIgG4IAAQIECBAgQIAAgegEZKHopkRBBAgQIECAAAECBAgEEJCFAiAbggABAgQIECBAgACB6ARkoeimREEECBAgQIAAAQIECAQQkIUCIBuCAAECBAgQIECAAIHoBGSh6KZEQQQIECBAgAABAgQIBBCQhQIgG4IAAQIECBAgQIAAgegEZKHopkRBBAgQIECAAAECBAgEEPgfvD7y/ggKdP0AAAAASUVORK5CYII=;" vertex="1" parent="1">
          <mxGeometry y="140" width="1074.69" height="561" as="geometry" />
        </mxCell>
        <mxCell id="OhJF637DeTEr0FJWsne7-5" value="alt&lt;div&gt;&lt;br&gt;&lt;/div&gt;" style="rounded=1;whiteSpace=wrap;html=1;" vertex="1" parent="1">
          <mxGeometry x="50" y="450" width="60" height="30" as="geometry" />
        </mxCell>
        <mxCell id="OhJF637DeTEr0FJWsne7-6" value="[status == success]" style="text;html=1;align=center;verticalAlign=middle;resizable=0;points=[];autosize=1;strokeColor=none;fillColor=none;" vertex="1" parent="1">
          <mxGeometry x="150" y="450" width="130" height="30" as="geometry" />
        </mxCell>
        <mxCell id="OhJF637DeTEr0FJWsne7-7" value="Enter Reservation Request" style="whiteSpace=wrap;html=1;" vertex="1" parent="1">
          <mxGeometry x="460" y="80" width="120" height="60" as="geometry" />
        </mxCell>
      </root>
    </mxGraphModel>
  </diagram>
</mxfile>
